<svg width="240" height="72" viewBox="0 0 240 72" fill="none" xmlns="http://www.w3.org/2000/svg">
<g clip-path="url(#clip0_16_772)">
<rect width="240" height="72" rx="4" fill="#4DDBFF"/>
<g clip-path="url(#clip1_16_772)">
<path d="M96.5399 57.6536C96.7477 57.9394 97.0156 58.1763 97.3248 58.3473C97.634 58.5184 97.9769 58.6196 98.3295 58.6438C98.682 58.6679 99.0355 58.6145 99.3651 58.4872C99.6948 58.3599 99.9925 58.1619 100.237 57.907L105.382 59.9168L107.366 57.0871L100.06 54.351C99.605 53.9679 99.0251 53.7652 98.4304 53.7813C97.8358 53.7973 97.2676 54.031 96.8337 54.4381C96.3997 54.8452 96.1302 55.3974 96.076 55.99C96.0219 56.5826 96.1869 57.1745 96.5399 57.6536V57.6536Z" fill="#9E616A"/>
<path d="M122.219 46.5096L139.604 42.731L141.538 57.7058L139.928 64.8609L140.573 75.7346C140.573 75.7346 126.826 82.579 120.016 77.0083C120.016 77.0083 125.489 62.6265 122.317 55.894L122.219 46.5096Z" fill="#E4E4E4"/>
<path d="M125.23 48.6277L122.219 46.5096C122.219 46.5096 122.041 46.2632 119.532 49.1974C117.023 52.1317 111.933 56.7991 111.933 56.7991L103.449 53.6167L101.904 59.329L111.763 63.9251L125.722 54.5998L125.23 48.6277Z" fill="#E4E4E4"/>
<path d="M140.575 81.3479C140.895 81.197 141.177 80.9778 141.403 80.7057C141.629 80.4337 141.792 80.1155 141.881 79.7736C141.971 79.4316 141.984 79.0742 141.921 78.7265C141.857 78.3788 141.718 78.0493 141.513 77.7612L144.446 73.0792L142.036 70.6027L137.988 77.2728C137.527 77.6488 137.219 78.181 137.124 78.7685C137.029 79.3559 137.153 79.9578 137.472 80.4602C137.791 80.9625 138.283 81.3303 138.855 81.4939C139.427 81.6575 140.039 81.6056 140.575 81.3479Z" fill="#9E616A"/>
<path d="M136.893 45.681L139.604 42.731C139.604 42.731 142.626 41.6785 145.094 47.1173C147.563 52.5561 150.32 63.588 150.32 63.588L143.874 76.009L138.867 73.7714L143.874 63.5003L138.576 55.8941L136.893 45.681Z" fill="#E4E4E4"/>
<path d="M132.294 41.5027C135.029 40.0072 136.034 36.5771 134.539 33.8414C133.044 31.1057 129.615 30.1003 126.88 31.5958C124.146 33.0913 123.141 36.5213 124.636 39.257C126.131 41.9927 129.559 42.9981 132.294 41.5027Z" fill="#9E616A"/>
<path d="M134.346 31.5011C134.08 30.3801 133.145 29.4954 132.071 29.0805C130.996 28.6656 129.799 28.6696 128.663 28.8626C126.778 29.183 125.018 29.9962 123.283 30.8013L124.62 31.4411L122.775 31.547L124.201 32.2845C123.82 32.5743 123.531 32.9673 123.367 33.4168C123.202 33.8663 123.171 34.3534 123.275 34.8205C123.348 35.1261 123.544 35.4629 123.858 35.4735C124.238 35.4862 124.436 35.0437 124.702 34.7722C125.056 34.411 125.614 34.3309 126.115 34.3989C126.615 34.467 127.09 34.6597 127.584 34.7662C128.209 34.8964 128.854 34.8893 129.476 34.7452C130.097 34.6011 130.68 34.3236 131.184 33.9319L132.962 38.214C132.945 38.0525 132.966 37.8894 133.022 37.7372C133.079 37.5851 133.17 37.4481 133.289 37.337C133.407 37.2259 133.549 37.1437 133.705 37.0968C133.86 37.0498 134.024 37.0395 134.184 37.0665C134.344 37.0935 134.496 37.1571 134.627 37.2524C134.759 37.3477 134.866 37.4721 134.942 37.6159C135.017 37.7597 135.058 37.9189 135.062 38.0812C135.066 38.2436 135.032 38.4045 134.963 38.5516C135.733 37.3905 136.352 36.0713 136.373 34.6783C136.394 33.2853 135.703 31.8179 134.439 31.2333" fill="#2F2E41"/>
<path d="M113.683 25.8368C113.683 16.9251 107.472 9.70068 99.8104 9.70068C92.1489 9.70068 85.938 16.9251 85.938 25.8368C85.938 33.9193 91.047 40.6136 97.7134 41.7895V43.3101C97.7134 43.5974 97.8275 43.8729 98.0305 44.076C98.2336 44.2791 98.509 44.3932 98.7962 44.3932H100.825C101.112 44.3932 101.387 44.2791 101.59 44.076C101.793 43.8729 101.907 43.5974 101.907 43.3101V41.7895C108.574 40.6137 113.683 33.9193 113.683 25.8368Z" fill="#7052CC"/>
<path d="M97.3798 43.0902C97.8139 42.6825 98.331 42.3735 98.8957 42.1845C99.4604 41.9956 100.059 41.9311 100.651 41.9956C101.248 42.0647 101.82 42.2715 102.323 42.5997C102.826 42.9279 103.246 43.3684 103.55 43.8866C103.854 44.3894 104.045 44.9524 104.11 45.5364C104.174 46.1204 104.111 46.7115 103.925 47.2687C103.56 48.3799 102.785 49.3046 101.99 50.1381C101.157 51.0125 100.25 51.8188 99.4664 52.7404C98.174 54.2689 97.2716 56.0882 96.8365 58.0423C96.4014 59.9964 96.4466 62.0268 96.9683 63.9596C97.6559 66.4093 99.0757 68.5902 101.037 70.21C101.286 70.4136 101.543 70.6075 101.807 70.7918C102.112 71.0056 102.401 70.5046 102.099 70.2925C99.9689 68.7853 98.3949 66.6182 97.6202 64.1262C97.0328 62.1843 96.9576 60.1234 97.402 58.1439C97.8464 56.1643 98.7953 54.3335 100.156 52.8293C100.983 51.9162 101.909 51.0989 102.735 50.1856C103.527 49.3106 104.249 48.3234 104.558 47.1675C104.714 46.5798 104.753 45.9669 104.672 45.3641C104.591 44.7614 104.391 44.1806 104.085 43.6553C103.78 43.1183 103.367 42.65 102.873 42.28C102.378 41.9099 101.813 41.646 101.212 41.5048C100.003 41.2419 98.7386 41.4608 97.6881 42.1151C97.4307 42.2793 97.1905 42.469 96.9711 42.6814C96.7027 42.94 97.1117 43.3485 97.3798 43.0902V43.0902Z" fill="#3F3D56"/>
<path d="M60.2258 19.0796C55.9811 9.3186 45.7374 4.36593 37.3457 8.01753C28.954 11.6691 25.5922 22.5422 29.8368 32.3032C33.6865 41.156 42.4709 46.0534 50.3327 44.1639L51.057 45.8295C51.1938 46.1441 51.45 46.3915 51.7691 46.5172C52.0883 46.6429 52.4443 46.6366 52.7588 46.4998L54.9806 45.533C55.2951 45.3961 55.5424 45.1398 55.6681 44.8206C55.7937 44.5013 55.7875 44.1452 55.6506 43.8305L54.9264 42.165C61.6681 37.6998 64.0755 27.9324 60.2258 19.0796Z" fill="#7052CC"/>
<path d="M50.5447 45.698C50.8205 45.0625 51.2267 44.4919 51.7369 44.0234C52.2472 43.5549 52.8502 43.1989 53.5068 42.9783C54.1515 42.7612 54.836 42.6876 55.5121 42.7627C56.1883 42.8379 56.8399 43.0599 57.4213 43.4134C58.0202 43.7683 58.5367 44.2469 58.9361 44.8173C59.3356 45.3876 59.6089 46.0366 59.7379 46.7209C60.0342 48.3068 59.5535 49.9223 59.0072 51.3988C58.4346 52.9467 57.7211 54.4499 57.323 56.0573C56.7689 58.3164 56.7577 60.6747 57.2903 62.939C57.8229 65.2032 58.8841 67.3091 60.3871 69.084C62.28 71.2783 64.773 72.871 67.5593 73.6659C67.9011 73.7623 68.2464 73.8446 68.5944 73.9151C68.9576 73.9886 69.113 73.4314 68.7481 73.3575C65.8491 72.7606 63.2072 71.2772 61.1877 69.1127C59.047 66.7974 57.7538 63.8248 57.5191 60.6798C57.3934 59.0864 57.5394 57.4832 57.9508 55.9387C58.39 54.3089 59.1334 52.783 59.6939 51.1951C60.2287 49.6798 60.6077 48.0526 60.2717 46.4491C59.9628 45.0372 59.1063 43.8057 57.8904 43.025C57.3077 42.6407 56.6544 42.376 55.9685 42.2464C55.2827 42.1168 54.5779 42.1248 53.8951 42.27C52.5008 42.586 51.2792 43.4214 50.4789 44.6065C50.2842 44.9019 50.1195 45.2161 49.9873 45.5443C49.8452 45.8878 50.4042 46.0375 50.5447 45.698L50.5447 45.698Z" fill="#3F3D56"/>
<path d="M165.31 62.3163H175.518L179.783 66.5827L181.057 84.2181L165.641 86.6998L160.688 69.8731L163.385 62.7218L165.31 62.3163Z" fill="#E4E4E4"/>
<path d="M161.64 70.0413L145.924 64.1264L145.515 61.6814L155.426 53.2921L158.725 55.7672L152.746 62.3162L163.385 62.7218L161.64 70.0413Z" fill="#E4E4E4"/>
<path d="M157.332 56.7235C158.736 56.7235 159.874 55.5854 159.874 54.1813C159.874 52.7773 158.736 51.6392 157.332 51.6392C155.929 51.6392 154.791 52.7773 154.791 54.1813C154.791 55.5854 155.929 56.7235 157.332 56.7235Z" fill="#FFB6B6"/>
<path d="M163.226 57.384L164.374 52.204C164.576 51.2918 164.955 50.4281 165.49 49.6625C166.025 48.8968 166.706 48.2442 167.493 47.7419C168.281 47.2396 169.16 46.8975 170.079 46.7351C170.999 46.5727 171.942 46.5932 172.854 46.7955C173.765 46.9977 174.628 47.3778 175.393 47.9139C176.158 48.45 176.81 49.1316 177.311 49.9199C177.813 50.7081 178.154 51.5874 178.315 52.5076C178.477 53.4278 178.455 54.3708 178.252 55.2827L177.104 60.4627C177.049 60.7098 176.898 60.925 176.684 61.061C176.471 61.1971 176.212 61.2428 175.965 61.1883L163.951 58.5232C163.704 58.4681 163.489 58.3172 163.353 58.1036C163.217 57.8901 163.172 57.6313 163.226 57.384Z" fill="#2F2E41"/>
<path d="M171.137 59.3365C173.902 58.5353 175.493 55.6442 174.692 52.879C173.891 50.1139 171.001 48.5218 168.237 49.3231C165.473 50.1243 163.881 53.0154 164.682 55.7805C165.483 58.5456 168.373 60.1377 171.137 59.3365Z" fill="#FFB6B6"/>
<path d="M162.641 52.2542C162.965 50.7988 163.854 49.5316 165.111 48.7305C166.368 47.9294 167.892 47.6599 169.347 47.9811L170.383 48.2108C171.838 48.5353 173.105 49.4238 173.906 50.6815C174.706 51.9391 174.976 53.4632 174.655 54.9193L174.632 55.0229L172.443 54.5373L172.16 52.2807L171.547 54.3386L170.416 54.0877L170.273 52.9491L169.964 53.9874L162.618 52.3578L162.641 52.2542Z" fill="#2F2E41"/>
<path d="M167.903 60.0108C167.831 59.8488 167.806 59.6698 167.831 59.4944C167.857 59.319 167.931 59.1543 168.046 59.0193C169.606 57.1746 171.998 53.657 170.486 50.825L170.378 50.6215L176.299 51.935L174.327 60.828L168.738 60.5841C168.681 60.5817 168.625 60.5743 168.57 60.5621C168.423 60.5295 168.286 60.4625 168.17 60.3667C168.054 60.2709 167.962 60.1489 167.903 60.0108Z" fill="#2F2E41"/>
<path d="M175.112 62.4231L191.736 64.7876L192.665 67.0858L184.809 77.4255L181.052 75.7252L185.469 68.0348L174.995 69.9473L175.112 62.4231Z" fill="#E4E4E4"/>
<path d="M200 28.901C200 18.2564 192.581 9.62732 183.43 9.62732C174.279 9.62732 166.86 18.2564 166.86 28.901C166.86 38.5551 172.963 46.5511 180.925 47.9556V49.7719C180.925 50.115 181.062 50.4441 181.304 50.6867C181.547 50.9293 181.876 51.0657 182.219 51.0657H184.642C184.985 51.0657 185.314 50.9293 185.556 50.6867C185.799 50.4441 185.935 50.115 185.935 49.7719V47.9556C193.898 46.5512 200 38.5551 200 28.901Z" fill="#7052CC"/>
<path d="M180.487 49.4696C181.013 48.9749 181.641 48.6005 182.326 48.3723C183.011 48.1441 183.737 48.0675 184.454 48.1477C185.159 48.2308 185.836 48.4733 186.433 48.8567C187.031 49.2402 187.533 49.7546 187.902 50.361C188.278 50.9594 188.52 51.6322 188.611 52.333C188.701 53.0338 188.64 53.746 188.429 54.4206C188.02 55.7448 187.123 56.8535 186.188 57.8472C185.19 58.9074 184.097 59.8768 183.143 60.9783C181.588 62.7862 180.495 64.9449 179.958 67.2688C179.421 69.5926 179.457 72.0121 180.061 74.3192C180.87 77.2845 182.58 79.9254 184.954 81.8772C185.242 82.1119 185.538 82.3358 185.843 82.5488C186.149 82.7624 186.438 82.2614 186.135 82.0495C183.593 80.2522 181.71 77.6706 180.776 74.7005C180.066 72.3822 179.965 69.9199 180.483 67.5514C181.002 65.1828 182.122 62.9879 183.735 61.1785C184.716 60.0834 185.82 59.1079 186.812 58.0234C187.762 56.9849 188.634 55.819 189.024 54.4467C189.221 53.7535 189.278 53.0284 189.192 52.313C189.107 51.5977 188.88 50.9065 188.526 50.2793C188.173 49.6379 187.691 49.0764 187.111 48.63C186.531 48.1835 185.865 47.8618 185.155 47.6849C183.712 47.353 182.196 47.6045 180.937 48.3846C180.629 48.5799 180.341 48.8065 180.079 49.0607C179.811 49.3197 180.22 49.7283 180.487 49.4696Z" fill="#3F3D56"/>
<path d="M156.009 54.895C155.876 55.1059 155.553 55.0752 155.371 54.9434C155.119 54.7604 155.201 54.408 155.374 54.1997C155.925 53.5379 156.837 54.2366 156.96 54.894C157.006 55.2144 156.956 55.5413 156.818 55.834C156.68 56.1267 156.459 56.3724 156.182 56.5405C155.553 56.9133 154.736 56.7264 154.196 56.2802C153.068 55.3495 153.375 53.4862 154.628 52.8128C155.427 52.3831 156.438 52.5717 157.226 52.9317C158.112 53.3369 158.874 53.9579 159.694 54.4756C161.493 55.602 163.528 56.2971 165.64 56.5065C166.01 56.5443 166.007 55.9658 165.64 55.9283C164.47 55.8073 163.321 55.5306 162.224 55.1054C161.138 54.6653 160.108 54.0996 159.154 53.4199C158.188 52.758 157.18 52.115 155.985 52.0056C155.503 51.9493 155.015 52.0217 154.57 52.2154C154.125 52.4091 153.739 52.7173 153.451 53.1085C153.196 53.4587 153.025 53.8632 152.951 54.2906C152.878 54.7179 152.905 55.1564 153.03 55.5717C153.18 56.0059 153.442 56.3926 153.79 56.6924C154.138 56.9922 154.56 57.1944 155.011 57.2784C155.446 57.3606 155.895 57.305 156.297 57.1193C156.699 56.9337 157.032 56.6273 157.252 56.2429C157.691 55.4822 157.677 54.4603 157.013 53.8296C156.823 53.636 156.584 53.4965 156.322 53.4252C156.06 53.3539 155.784 53.3535 155.522 53.424C155.28 53.5056 155.068 53.6559 154.91 53.8564C154.753 54.0569 154.657 54.299 154.635 54.5531C154.571 55.5406 155.972 56.0344 156.508 55.1868C156.707 54.8714 156.207 54.581 156.009 54.895Z" fill="#3F3D56"/>
<path d="M72.1598 9.64546L71.3964 10.6036L68.6963 9.00577L69.4597 8.04749L72.1598 9.64546Z" fill="#E4E4E4"/>
<path d="M74.9771 13.7623L75.6515 14.769L72.815 16.1804L72.1406 15.1737L74.9771 13.7623Z" fill="#E4E4E4"/>
<path d="M77.9134 9.38599L79.2609 9.43359L79.1268 12.2541L77.7793 12.2065L77.9134 9.38599Z" fill="#E4E4E4"/>
<path d="M147.109 19.6678L146.346 20.6259L143.646 19.0281L144.409 18.0698L147.109 19.6678Z" fill="#E4E4E4"/>
<path d="M149.927 23.7845L150.601 24.7912L147.765 26.2026L147.09 25.196L149.927 23.7845Z" fill="#E4E4E4"/>
<path d="M152.863 19.4083L154.211 19.4559L154.077 22.2764L152.729 22.2288L152.863 19.4083Z" fill="#E4E4E4"/>
<path d="M124.181 5.59798L123.418 6.55607L120.718 4.95829L121.481 4L124.181 5.59798Z" fill="#E4E4E4"/>
<path d="M126.999 9.71484L127.673 10.7215L124.836 12.1329L124.162 11.1263L126.999 9.71484Z" fill="#E4E4E4"/>
<path d="M129.935 5.3385L131.282 5.38611L131.148 8.20661L129.801 8.15901L129.935 5.3385Z" fill="#E4E4E4"/>
<path d="M70.3257 73.8652C70.2143 73.8339 70.1004 73.8126 69.9852 73.8017L71.4564 61.7556L76.4483 51.1805C76.7624 50.5152 76.8126 49.7556 76.5888 49.0548C76.365 48.354 75.8838 47.7642 75.2424 47.4043C74.6009 47.0445 73.8469 46.9413 73.1325 47.1157C72.418 47.29 71.7962 47.7289 71.3925 48.3439V48.3439C70.0841 50.3366 69.0944 52.5212 68.4591 54.819L66.3618 62.4045L67.8954 75.4128C67.8366 75.7794 67.8849 76.1553 68.0346 76.4951C68.1843 76.8349 68.429 77.1242 68.7392 77.3281C69.0494 77.5321 69.4119 77.6421 69.7831 77.6448C70.1543 77.6475 70.5184 77.5429 70.8316 77.3435C71.1447 77.1441 71.3936 76.8584 71.5483 76.5208C71.7029 76.1832 71.7568 75.8081 71.7033 75.4407C71.6499 75.0732 71.4914 74.729 71.247 74.4495C71.0026 74.17 70.6827 73.9671 70.3257 73.8652H70.3257Z" fill="#FFB6B6"/>
<path d="M73.3567 62.7752L67.0498 55.5578L70.1742 48.2065C70.5833 47.2439 71.3524 46.4793 72.3172 46.0759C73.282 45.6726 74.3662 45.6624 75.3384 46.0476C76.3106 46.4327 77.0939 47.1827 77.521 48.1375C77.9481 49.0923 77.9852 50.1763 77.6245 51.1581L73.3567 62.7752Z" fill="#2F2E41"/>
<path d="M83.8409 39.7669C85.3582 36.9902 84.3381 33.5088 81.5623 31.9909C78.7866 30.473 75.3063 31.4935 73.7889 34.2702C72.2716 37.0469 73.2917 40.5283 76.0675 42.0462C78.8432 43.5641 82.3235 42.5436 83.8409 39.7669Z" fill="#FFB6B6"/>
<path d="M79.7724 30.0574H76.0723C73.6466 30.0574 71.6802 32.2704 71.6802 35.0002L71.8514 41.6216C74.4724 41.9477 77.036 42.6336 79.4699 43.6599L79.8152 42.1846L80.4964 44.1275C81.1023 44.4212 81.703 44.7423 82.2986 45.0908C81.6035 41.8237 81.3174 38.5642 81.7946 36.0322H83.0478V34.6603L83.4733 36.0322H85.7452V36.0322C85.7453 35.2476 85.5908 34.4706 85.2906 33.7457C84.9904 33.0208 84.5505 32.3622 83.9959 31.8073C83.4412 31.2525 82.7828 30.8124 82.0581 30.5122C81.3335 30.2119 80.5568 30.0574 79.7724 30.0574Z" fill="#2F2E41"/>
<path d="M91.8369 110.093L91.3009 110.222L90.851 101.852L87.5756 76.796L83.8185 67.2555L85.6488 60.6061C85.6488 60.6061 87.7682 55.9804 82.4698 52.4148L78.231 45.2836C75.303 43.3684 72.8939 44.6207 71.6097 47.8759C70.4908 50.7122 69.6222 54.3004 70.1387 58.0042C71.296 66.3006 72.2581 67.2555 72.2581 67.2555C72.2581 67.2555 65.0329 75.2541 66.5743 85.4691L65.7153 111.917L64.9293 111.885L64.8433 113.986L71.7094 114.267L71.7955 112.167L71.2259 112.143L73.7032 101.659L77.364 87.7819L83.7221 104.743L85.8607 111.533L85.1562 111.702L85.6483 113.746L92.3291 112.137L91.8369 110.093Z" fill="#2F2E41"/>
<path d="M96.5554 62.5997C96.4776 62.6854 96.4077 62.7779 96.3465 62.8761L86.2306 56.1771L79.0034 46.9847C78.5487 46.4064 77.8918 46.0221 77.1651 45.9093C76.4383 45.7964 75.6959 45.9635 75.0874 46.3767C74.479 46.79 74.0498 47.4187 73.8865 48.136C73.7232 48.8533 73.8379 49.6059 74.2075 50.2419C75.4051 52.3032 76.9166 54.165 78.6878 55.7602L84.5346 61.0264L96.8536 65.4661C97.1552 65.6826 97.5129 65.8073 97.8837 65.8251C98.2545 65.843 98.6225 65.7533 98.9436 65.5668C99.2646 65.3803 99.5249 65.105 99.6932 64.774C99.8615 64.443 99.9306 64.0705 99.8922 63.7011C99.8537 63.3318 99.7094 62.9814 99.4766 62.6922C99.2438 62.4029 98.9324 62.1871 98.5799 62.0708C98.2274 61.9544 97.8488 61.9424 97.4896 62.0363C97.1304 62.1301 96.806 62.3257 96.5554 62.5997H96.5554Z" fill="#FFB6B6"/>
<path d="M87.9917 54.9322L78.7191 57.3516L73.5406 51.2709C72.8624 50.4746 72.5222 49.4448 72.5926 48.4011C72.6629 47.3575 73.1383 46.3826 73.9171 45.6847C74.696 44.9867 75.7167 44.6209 76.7614 44.6652C77.8062 44.7096 78.7922 45.1607 79.5091 45.9222L87.9917 54.9322Z" fill="#2F2E41"/>
</g>
</g>
<defs>
<clipPath id="clip0_16_772">
<rect width="240" height="72" fill="white"/>
</clipPath>
<clipPath id="clip1_16_772">
<rect width="172" height="136" fill="white" transform="translate(28 4)"/>
</clipPath>
</defs>
</svg>
