<svg width="172" height="132" viewBox="0 0 172 132" fill="none" xmlns="http://www.w3.org/2000/svg">
<g clip-path="url(#clip0_46_1677)">
<path opacity="0.1" d="M78.8154 116.558C118.291 116.558 150.293 114.076 150.293 111.014C150.293 107.953 118.291 105.471 78.8154 105.471C39.3394 105.471 7.33789 107.953 7.33789 111.014C7.33789 114.076 39.3394 116.558 78.8154 116.558Z" fill="#7052CC"/>
<g opacity="0.1">
<path opacity="0.1" d="M142.122 79.4275C141.695 78.1324 139.963 77.5361 138.254 78.0971C138.008 78.1773 137.77 78.2802 137.543 78.4045C137.433 78.3743 137.321 78.3474 137.206 78.3272C137.3 77.9547 137.335 77.57 137.312 77.1867C137.902 76.7928 138.38 76.2543 138.701 75.6227C139.022 74.9912 139.175 74.2878 139.145 73.5801C139.733 73.1852 140.21 72.6462 140.53 72.0148C140.849 71.3834 141.002 70.6806 140.972 69.9736C141.564 69.5837 142.042 69.0434 142.356 68.408C143.18 66.7786 142.839 64.9477 141.592 64.3177C140.346 63.6878 138.666 64.4992 137.842 66.1286C137.515 66.7574 137.363 67.462 137.4 68.1695C136.812 68.5645 136.335 69.1034 136.016 69.7349C135.696 70.3663 135.543 71.0691 135.573 71.776C134.985 72.171 134.509 72.71 134.189 73.3414C133.869 73.9728 133.717 74.6756 133.747 75.3826C133.158 75.777 132.68 76.3159 132.359 76.9477C132.038 77.5794 131.884 78.2829 131.914 78.9908C131.321 79.3807 130.844 79.921 130.529 80.5563C130.375 80.8626 130.257 81.1863 130.18 81.5205C129.973 81.219 129.721 80.951 129.433 80.726C129.4 80.4694 129.344 80.2164 129.265 79.9701C128.703 78.2617 127.196 77.2203 125.901 77.6469C124.606 78.0736 124.007 79.8021 124.569 81.5105C124.799 82.2429 125.242 82.8907 125.841 83.3717C125.874 83.6282 125.93 83.8812 126.009 84.1276C126.335 85.1186 126.979 85.8846 127.716 86.2693C127.651 86.4833 127.604 86.7025 127.576 86.9244C126.882 87.5917 126.434 88.4748 126.308 89.429C125.613 90.0965 125.166 90.9804 125.04 91.9353C124.696 92.2654 124.411 92.6524 124.199 93.0792C123.373 94.7086 123.715 96.5413 124.961 97.1695C126.207 97.7977 127.887 96.9898 128.713 95.3587C128.931 94.9334 129.073 94.4736 129.134 93.9997C129.828 93.3325 130.275 92.4494 130.402 91.4952C131.097 90.8276 131.544 89.9438 131.67 88.9889C132.36 88.3201 132.801 87.4369 132.923 86.4843C133.62 85.8169 134.069 84.9315 134.194 83.9747C134.408 83.7721 134.599 83.5468 134.764 83.3028C135.451 83.4437 136.164 83.399 136.828 83.1734C137.074 83.0933 137.312 82.9904 137.539 82.8661C138.283 83.062 139.068 83.0339 139.796 82.7854C141.5 82.2294 142.548 80.7243 142.122 79.4275Z" fill="#3F3D56"/>
<g opacity="0.1">
<path opacity="0.1" d="M139.107 74.321C138.93 74.4944 138.736 74.6492 138.528 74.783C138.554 75.2625 138.491 75.7427 138.341 76.1991C138.474 76.0163 138.592 75.8237 138.694 75.6229C138.903 75.2147 139.042 74.7748 139.107 74.321Z" fill="black"/>
<path opacity="0.1" d="M140.933 70.7146C140.757 70.888 140.563 71.0427 140.355 71.1765C140.381 71.6561 140.318 72.1363 140.168 72.5926C140.301 72.4095 140.419 72.2163 140.521 72.0148C140.729 71.6069 140.868 71.1676 140.933 70.7146Z" fill="black"/>
<path opacity="0.1" d="M136.791 69.3724C136.775 69.1251 136.785 68.8769 136.819 68.6316C136.493 68.9531 136.221 69.3259 136.015 69.7352C135.914 69.9371 135.828 70.1465 135.76 70.3618C136.038 69.9702 136.388 69.6346 136.791 69.3724Z" fill="black"/>
<path opacity="0.1" d="M125.198 91.1979C125.345 90.9934 125.511 90.8033 125.694 90.6302C125.723 90.4023 125.771 90.1774 125.84 89.9583C125.694 90.1544 125.565 90.363 125.455 90.5815C125.353 90.78 125.267 90.9861 125.198 91.1979Z" fill="black"/>
<path opacity="0.1" d="M126.466 88.6951C126.613 88.4905 126.779 88.3004 126.962 88.1273C126.99 87.9053 127.037 87.6861 127.102 87.4722C126.962 87.6627 126.839 87.8644 126.732 88.0752C126.628 88.2749 126.539 88.4821 126.466 88.6951Z" fill="black"/>
<path opacity="0.1" d="M137.279 77.9276C137.103 78.1009 136.91 78.2552 136.702 78.3879C136.725 78.7713 136.689 79.1559 136.596 79.5285C136.709 79.5481 136.821 79.5739 136.932 79.6057C137.159 79.4814 137.397 79.3785 137.643 79.2983C139.356 78.7373 141.086 79.3336 141.512 80.6287C141.617 80.9543 141.636 81.3017 141.565 81.6366C142.129 80.9748 142.363 80.1685 142.12 79.4294C141.693 78.1342 139.961 77.5379 138.252 78.099C138.006 78.1791 137.768 78.282 137.541 78.4064C137.432 78.3761 137.319 78.3493 137.205 78.3291C137.236 78.1947 137.26 78.062 137.279 77.9276Z" fill="black"/>
<path opacity="0.1" d="M124.572 92.4561C124.426 92.6522 124.297 92.8608 124.187 93.0793C124.085 93.2818 123.998 93.4918 123.928 93.7075C124.078 93.5019 124.247 93.3107 124.433 93.1364C124.459 92.9059 124.505 92.6782 124.572 92.4561Z" fill="black"/>
<path opacity="0.1" d="M134.956 72.9788C134.94 72.7316 134.95 72.4834 134.984 72.238C134.658 72.5595 134.386 72.9324 134.18 73.3417C134.079 73.5435 133.993 73.753 133.925 73.9682C134.203 73.5767 134.553 73.241 134.956 72.9788Z" fill="black"/>
<path opacity="0.1" d="M132.317 87.6871C132.284 87.937 132.228 88.1833 132.149 88.4229C132.28 88.2394 132.398 88.0462 132.5 87.845C132.611 87.6292 132.702 87.4044 132.775 87.1731C132.637 87.357 132.484 87.529 132.317 87.6871Z" fill="black"/>
<path opacity="0.1" d="M129.781 92.6964C129.748 92.9463 129.692 93.1926 129.613 93.4321C129.746 93.2491 129.864 93.0559 129.966 92.8543C130.076 92.6382 130.167 92.4134 130.24 92.1824C130.102 92.3667 129.949 92.5387 129.781 92.6964Z" fill="black"/>
<path opacity="0.1" d="M131.049 90.19C131.016 90.4399 130.96 90.6862 130.881 90.9257C131.015 90.7457 131.135 90.5559 131.241 90.358C131.351 90.1421 131.443 89.9174 131.515 89.686C131.374 89.8668 131.218 90.0354 131.049 90.19Z" fill="black"/>
<path opacity="0.1" d="M133.585 85.1825C133.552 85.4319 133.496 85.6777 133.417 85.9166C133.549 85.7339 133.666 85.5413 133.768 85.3404C133.88 85.1209 133.972 84.8921 134.044 84.6567C133.907 84.8453 133.754 85.0213 133.585 85.1825Z" fill="black"/>
<path opacity="0.1" d="M125.282 78.8481C126.58 78.4231 128.087 79.4629 128.646 81.1712C128.724 81.4182 128.781 81.6718 128.814 81.9288C129.102 82.1538 129.354 82.4218 129.56 82.7234C129.638 82.3886 129.755 82.0643 129.91 81.7575C129.969 81.6432 130.033 81.5341 130.099 81.4215C129.908 81.1577 129.681 80.9214 129.426 80.7194C129.393 80.4628 129.337 80.2098 129.258 79.9635C128.696 78.2551 127.189 77.2136 125.894 77.6403C125.154 77.8822 124.643 78.5491 124.444 79.3923C124.672 79.1419 124.96 78.9544 125.282 78.8481Z" fill="black"/>
<path opacity="0.1" d="M131.303 80.192C131.288 79.9452 131.298 79.6976 131.333 79.4529C131.006 79.7738 130.733 80.1468 130.528 80.5565C130.426 80.7576 130.34 80.9666 130.272 81.1814C130.551 80.7905 130.901 80.4549 131.303 80.192Z" fill="black"/>
<path opacity="0.1" d="M133.13 76.5838C133.115 76.3371 133.125 76.0894 133.16 75.8447C132.832 76.1648 132.56 76.5372 132.354 76.9467C132.253 77.1485 132.167 77.358 132.099 77.5732C132.377 77.1817 132.727 76.846 133.13 76.5838Z" fill="black"/>
<path opacity="0.1" d="M128.513 95.2009C128.48 95.4514 128.424 95.6983 128.345 95.9383C128.621 95.5559 128.833 95.1309 128.972 94.6802C128.835 94.8668 128.681 95.0411 128.513 95.2009Z" fill="black"/>
</g>
<path opacity="0.1" d="M144.615 62.7607C145.207 62.3713 145.685 61.8308 145.999 61.1951C146.825 59.5657 146.483 57.7331 145.237 57.1031C143.991 56.4732 142.311 57.2845 141.485 58.9156C141.158 59.5461 141.006 60.2526 141.044 60.9616C140.456 61.3566 139.98 61.8955 139.66 62.527C139.34 63.1584 139.188 63.8612 139.218 64.5681C138.625 64.9571 138.147 65.4977 137.834 66.1337C137.732 66.3331 137.647 66.5404 137.58 66.7536C138.019 66.1185 138.655 65.6461 139.391 65.4097C139.475 65.6685 139.609 65.9081 139.786 66.1146C139.963 66.3212 140.179 66.4906 140.422 66.6131C140.666 66.7356 140.931 66.8087 141.202 66.8282C141.474 66.8477 141.746 66.8132 142.004 66.7267C142.253 67.4571 142.253 68.2489 142.004 68.9793C142.136 68.7983 142.253 68.6074 142.354 68.4081C142.68 67.7792 142.833 67.0746 142.795 66.3672C143.383 65.9729 143.861 65.4341 144.18 64.8025C144.5 64.1709 144.652 63.4678 144.621 62.7607H144.615Z" fill="#3F3D56"/>
<path opacity="0.1" d="M164.689 39.6398C165.196 39.4035 165.686 39.1324 166.156 38.8284L160.718 34.8608L167.109 38.1481C168.402 37.1223 169.472 35.8436 170.253 34.3905C171.033 32.9373 171.509 31.3402 171.65 29.6971L160.789 29.8079L171.674 27.9904C171.561 26.3456 171.113 24.7412 170.357 23.2756C169.601 21.8101 168.553 20.5144 167.278 19.4681C166.002 18.4218 164.526 17.6471 162.939 17.1915C161.353 16.7359 159.69 16.609 158.053 16.8187C156.416 17.0283 154.839 17.5701 153.419 18.4106C151.999 19.2512 150.766 20.3729 149.796 21.7067C148.826 23.0406 148.139 24.5584 147.777 26.167C147.416 27.7757 147.388 29.4411 147.694 31.0611C146.905 31.4277 146.157 31.8783 145.464 32.4049L151.14 40.2882L144.326 33.3876C142.887 34.7981 141.824 36.5446 141.232 38.4689C140.639 40.3933 140.537 42.4348 140.933 44.4087C138.875 45.3684 137.128 46.8872 135.893 48.7916C134.657 50.6959 133.983 52.9089 133.947 55.1778C133.912 57.4466 134.516 59.6797 135.69 61.622C136.865 63.5642 138.563 65.1372 140.59 66.1612C142.618 67.1852 144.893 67.6188 147.155 67.4127C149.418 67.2065 151.576 66.3688 153.385 64.9953C155.193 63.6217 156.578 61.7678 157.382 59.6453C158.185 57.5228 158.374 55.2174 157.928 52.9925C160.392 51.8472 162.398 49.9076 163.624 47.4857C164.85 45.0638 165.226 42.3004 164.689 39.6398Z" fill="#7052CC"/>
<path opacity="0.1" d="M142.005 36.5624C140.774 38.9831 140.398 41.7478 140.937 44.4087C138.878 45.3684 137.131 46.8873 135.896 48.7916C134.661 50.6959 133.986 52.9089 133.951 55.1778C133.915 57.4466 134.519 59.6797 135.694 61.622C136.868 63.5642 138.566 65.1372 140.594 66.1612C142.621 67.1852 144.896 67.6189 147.159 67.4127C149.421 67.2065 151.58 66.3688 153.388 64.9953C155.197 63.6217 156.582 61.7678 157.385 59.6453C158.188 57.5228 158.378 55.2174 157.932 52.9925C160.308 51.8905 142.614 35.3513 142.005 36.5624Z" fill="black"/>
<path opacity="0.1" d="M155.651 19.0506C156.644 19.0506 157.449 18.2467 157.449 17.2549C157.449 16.2632 156.644 15.4592 155.651 15.4592C154.658 15.4592 153.853 16.2632 153.853 17.2549C153.853 18.2467 154.658 19.0506 155.651 19.0506Z" fill="#7052CC"/>
<path opacity="0.1" d="M166.152 20.203C167.145 20.203 167.95 19.399 167.95 18.4073C167.95 17.4155 167.145 16.6116 166.152 16.6116C165.159 16.6116 164.354 17.4155 164.354 18.4073C164.354 19.399 165.159 20.203 166.152 20.203Z" fill="#7052CC"/>
<path opacity="0.1" d="M170.202 36.3392C171.195 36.3392 172 35.5352 172 34.5435C172 33.5518 171.195 32.7478 170.202 32.7478C169.209 32.7478 168.404 33.5518 168.404 34.5435C168.404 35.5352 169.209 36.3392 170.202 36.3392Z" fill="#7052CC"/>
<path opacity="0.1" d="M164.736 44.3971C165.729 44.3971 166.534 43.5931 166.534 42.6014C166.534 41.6096 165.729 40.8057 164.736 40.8057C163.743 40.8057 162.938 41.6096 162.938 42.6014C162.938 43.5931 163.743 44.3971 164.736 44.3971Z" fill="#7052CC"/>
<path opacity="0.1" d="M157.269 61.1329C158.262 61.1329 159.066 60.3289 159.066 59.3372C159.066 58.3455 158.262 57.5415 157.269 57.5415C156.276 57.5415 155.471 58.3455 155.471 59.3372C155.471 60.3289 156.276 61.1329 157.269 61.1329Z" fill="#7052CC"/>
<path opacity="0.1" d="M157.269 61.1329C158.262 61.1329 159.066 60.3289 159.066 59.3372C159.066 58.3455 158.262 57.5415 157.269 57.5415C156.276 57.5415 155.471 58.3455 155.471 59.3372C155.471 60.3289 156.276 61.1329 157.269 61.1329Z" fill="black"/>
<path opacity="0.1" d="M140.666 42.1781C141.658 42.1781 142.463 41.3741 142.463 40.3824C142.463 39.3906 141.658 38.5867 140.666 38.5867C139.673 38.5867 138.868 39.3906 138.868 40.3824C138.868 41.3741 139.673 42.1781 140.666 42.1781Z" fill="#7052CC"/>
<path opacity="0.1" d="M140.666 42.1781C141.658 42.1781 142.463 41.3741 142.463 40.3824C142.463 39.3906 141.658 38.5867 140.666 38.5867C139.673 38.5867 138.868 39.3906 138.868 40.3824C138.868 41.3741 139.673 42.1781 140.666 42.1781Z" fill="black"/>
<path opacity="0.1" d="M138.748 69.9183C137.553 69.3153 137.191 67.6069 137.889 66.0312C137.852 66.0951 137.817 66.1606 137.783 66.2295C136.957 67.8589 137.299 69.6898 138.545 70.3198C139.791 70.9497 141.471 70.1383 142.295 68.5089C142.331 68.4418 142.361 68.3729 142.391 68.3057C141.535 69.8024 139.943 70.523 138.748 69.9183Z" fill="black"/>
<path opacity="0.1" d="M136.973 73.4256C135.778 72.8225 135.415 71.1142 136.115 69.5369C136.078 69.6024 136.041 69.6679 136.007 69.7351C135.181 71.3645 135.523 73.1971 136.769 73.8254C138.015 74.4536 139.695 73.6456 140.521 72.0146C140.555 71.9474 140.587 71.8802 140.617 71.8113C139.759 73.308 138.168 74.0286 136.973 73.4256Z" fill="black"/>
<path opacity="0.1" d="M135.197 76.9312C134.003 76.3282 133.639 74.6198 134.339 73.0442C134.302 73.108 134.265 73.1735 134.231 73.2424C133.405 74.8718 133.749 76.7028 134.995 77.3327C136.241 77.9626 137.92 77.1513 138.745 75.5219C138.779 75.4547 138.811 75.3858 138.841 75.3186C137.985 76.8153 136.392 77.536 135.197 76.9312Z" fill="black"/>
<path opacity="0.1" d="M133.427 80.4471C132.231 79.8441 131.87 78.1357 132.568 76.5601C132.531 76.6239 132.495 76.6894 132.46 76.7566C131.636 78.386 131.977 80.2187 133.224 80.8486C134.47 81.4785 136.15 80.6672 136.974 79.0361C137.009 78.9689 137.04 78.9017 137.07 78.8328C136.209 80.3211 134.616 81.0418 133.427 80.4471Z" fill="black"/>
<path opacity="0.1" d="M131.646 83.9444C130.45 83.3414 130.089 81.633 130.786 80.0574C130.749 80.1212 130.714 80.1867 130.681 80.2556C129.855 81.885 130.196 83.716 131.442 84.3459C132.689 84.9758 134.369 84.1645 135.195 82.5351C135.228 82.4679 135.26 82.399 135.29 82.3318C134.436 83.8285 132.84 84.5491 131.646 83.9444Z" fill="black"/>
<path opacity="0.1" d="M129.87 87.452C128.676 86.8489 128.313 85.1406 129.012 83.5649C128.975 83.6288 128.938 83.6943 128.905 83.7615C128.079 85.3909 128.42 87.2235 129.668 87.8535C130.916 88.4834 132.586 87.6704 133.427 86.041C133.461 85.9738 133.493 85.9066 133.523 85.8377C132.657 87.3344 131.072 88.055 129.87 87.452Z" fill="black"/>
<path opacity="0.1" d="M128.094 90.9576C126.9 90.3546 126.537 88.6462 127.237 87.0706C127.2 87.1361 127.164 87.1999 127.129 87.2688C126.305 88.8982 126.646 90.7292 127.893 91.3591C129.139 91.989 130.819 91.1777 131.643 89.5483C131.678 89.4811 131.709 89.4122 131.739 89.345C130.883 90.8417 129.29 91.5623 128.094 90.9576Z" fill="black"/>
<path opacity="0.1" d="M126.32 94.4649C125.124 93.8619 124.762 92.1535 125.46 90.5779C125.423 90.6417 125.388 90.7072 125.354 90.7744C124.529 92.4038 124.87 94.2365 126.116 94.8664C127.362 95.4963 129.043 94.685 129.868 93.0539C129.902 92.9867 129.932 92.9195 129.963 92.8506C129.106 94.3473 127.514 95.0613 126.32 94.4649Z" fill="black"/>
<path opacity="0.1" d="M125.153 96.7698C123.959 96.1651 123.595 94.4584 124.295 92.8811C124.258 92.9466 124.221 93.0121 124.187 93.0793C123.362 94.7087 123.703 96.5414 124.949 97.1696C126.195 97.7979 127.876 96.9899 128.701 95.3588C128.735 95.2916 128.767 95.2244 128.797 95.1555C127.939 96.6522 126.347 97.3729 125.153 96.7698Z" fill="black"/>
<path opacity="0.1" d="M157.24 81.1628C157.425 80.6321 157.538 80.079 157.576 79.5182C157.7 79.518 157.822 79.4922 157.935 79.4427C158.048 79.3931 158.15 79.3208 158.234 79.2302C158.318 79.1396 158.382 79.0327 158.422 78.9162C158.463 78.7997 158.479 78.676 158.47 78.553C158.46 78.43 158.426 78.3102 158.368 78.2012C158.31 78.0922 158.23 77.9963 158.134 77.9194C158.037 77.8426 157.925 77.7865 157.806 77.7546C157.687 77.7228 157.562 77.7158 157.44 77.7343C157.24 76.8251 156.84 75.9718 156.269 75.2364C155.697 74.501 154.969 73.9019 154.137 73.4827C154.244 73.2702 154.263 73.0238 154.189 72.7976C154.114 72.5714 153.953 72.384 153.74 72.2766C153.527 72.1693 153.28 72.1507 153.054 72.2251C152.828 72.2994 152.64 72.4606 152.532 72.6731C152.494 72.7486 152.466 72.8296 152.452 72.9133C151.465 72.7297 150.449 72.784 149.487 73.0718C148.525 73.3596 147.647 73.8725 146.924 74.5679C146.378 74.4796 145.822 74.4633 145.272 74.5192L144.544 77.83L144.5 74.6384C143.664 74.8214 142.875 75.1727 142.179 75.6709C141.484 76.1691 140.898 76.8036 140.456 77.5357C140.015 78.2679 139.728 79.0823 139.612 79.9291C139.496 80.7759 139.555 81.6373 139.784 82.4608C140.013 83.2843 140.408 84.0524 140.944 84.7184C141.48 85.3843 142.147 85.934 142.903 86.3338C143.659 86.7337 144.489 86.9753 145.342 87.0439C146.195 87.1126 147.053 87.0067 147.864 86.733C147.95 86.8892 148.082 87.0157 148.242 87.0958C148.407 87.1794 148.593 87.2102 148.776 87.184C148.959 87.1579 149.129 87.076 149.264 86.9497C149.399 86.8233 149.491 86.6586 149.528 86.4779C149.566 86.2972 149.547 86.1094 149.473 85.9401C149.76 85.7433 150.03 85.5231 150.281 85.2816C151.593 85.4948 152.94 85.2874 154.128 84.689C155.316 84.0906 156.283 83.132 156.892 81.9506L153.503 81.3811L157.24 81.1628Z" fill="#7052CC"/>
<g opacity="0.1">
<path opacity="0.1" d="M152.004 82.7704C150.753 81.1208 149.986 79.1672 149.103 77.2926C148.749 76.5231 148.352 75.7739 147.914 75.0484L147.252 74.2773C147.141 74.3714 147.03 74.4688 146.915 74.5713C146.369 74.4831 145.814 74.4667 145.264 74.5226L144.535 77.8335L144.492 74.6419C143.656 74.8249 142.866 75.1762 142.171 75.6743C141.476 76.1725 140.889 76.807 140.448 77.5392C140.007 78.2713 139.719 79.0857 139.604 79.9325C139.488 80.7793 139.546 81.6408 139.775 82.4642C140.005 83.2877 140.399 84.0559 140.936 84.7218C141.472 85.3877 142.139 85.9374 142.895 86.3373C143.651 86.7371 144.481 86.9788 145.334 87.0474C146.187 87.116 147.045 87.0102 147.855 86.7364C147.942 86.8926 148.074 87.0191 148.234 87.0992C148.399 87.1828 148.585 87.2136 148.768 87.1874C148.951 87.1613 149.121 87.0795 149.256 86.9531C149.39 86.8267 149.483 86.662 149.52 86.4813C149.557 86.3007 149.538 86.1129 149.465 85.9435C149.752 85.7467 150.022 85.5265 150.272 85.285C151.558 85.4929 152.876 85.298 154.046 84.7273C153.265 84.1884 152.576 83.5277 152.004 82.7704Z" fill="black"/>
</g>
<path opacity="0.1" d="M129.847 75.6816C129.916 75.5447 129.949 75.3922 129.942 75.2389C129.936 75.0856 129.89 74.9365 129.81 74.8059C129.729 74.6753 129.616 74.5675 129.482 74.4929C129.347 74.4183 129.196 74.3793 129.043 74.3798C128.788 73.0298 128.096 71.8006 127.075 70.8808C127.24 70.2394 127.302 69.5762 127.26 68.9154L123.955 68.3527L127.164 68.1511C127.106 67.8501 127.027 67.5537 126.927 67.2642C127.052 67.1783 127.154 67.0629 127.223 66.9282C127.304 66.7676 127.335 66.5865 127.312 66.4082C127.288 66.23 127.212 66.0627 127.093 65.9281C126.973 65.7936 126.816 65.6978 126.642 65.6533C126.468 65.6088 126.284 65.6176 126.115 65.6784C125.265 64.479 124.021 63.6148 122.6 63.2361C121.178 62.8573 119.669 62.988 118.334 63.6053C116.998 64.2226 115.922 65.2876 115.292 66.6152C114.661 67.9428 114.516 69.4491 114.882 70.8724C114.687 70.9544 114.528 71.1034 114.434 71.2923C114.352 71.455 114.321 71.6389 114.346 71.8196C114.371 72.0002 114.45 72.169 114.573 72.3035C114.697 72.438 114.858 72.5317 115.036 72.5723C115.214 72.6128 115.4 72.5981 115.57 72.5303C115.892 73.0714 116.294 73.5612 116.762 73.9833C116.421 75.31 116.524 76.7116 117.055 77.9745L121.486 76.8256L117.534 78.9018C118.233 80.0109 119.261 80.8741 120.475 81.3707C121.689 81.8674 123.029 81.9726 124.306 81.6716C125.583 81.3707 126.733 80.6786 127.597 79.6923C128.461 78.7059 128.995 77.4746 129.123 76.1704C129.276 76.1573 129.422 76.1055 129.549 76.0199C129.675 75.9344 129.778 75.8179 129.847 75.6816Z" fill="#7052CC"/>
<path opacity="0.1" d="M129.847 75.6816C129.916 75.5447 129.949 75.3922 129.943 75.2389C129.936 75.0856 129.89 74.9365 129.81 74.8059C129.729 74.6753 129.616 74.5675 129.482 74.4929C129.348 74.4183 129.196 74.3793 129.043 74.3798C128.788 73.0298 128.097 71.8006 127.075 70.8807C127.102 70.7749 127.126 70.6708 127.146 70.5649C127.028 70.6499 126.92 70.7461 126.821 70.8522C126.224 71.5056 125.918 72.3842 125.328 73.0443C124.631 73.8237 123.589 74.2303 122.548 74.3394C121.507 74.4486 120.459 74.289 119.431 74.0891C118.58 73.9212 117.717 73.7263 116.855 73.8086C116.771 73.8086 116.686 73.8271 116.609 73.8405C116.66 73.8893 116.71 73.938 116.762 73.985C116.421 75.3117 116.524 76.7132 117.055 77.9762L121.486 76.8255L117.534 78.9018C118.233 80.0109 119.261 80.8741 120.475 81.3707C121.69 81.8673 123.029 81.9725 124.306 81.6716C125.583 81.3706 126.734 80.6786 127.597 79.6922C128.461 78.7059 128.995 77.4745 129.124 76.1704C129.276 76.1573 129.422 76.1055 129.549 76.0199C129.675 75.9343 129.778 75.8179 129.847 75.6816Z" fill="black"/>
</g>
<g opacity="0.1">
<path opacity="0.1" d="M15.0506 85.8777C15.2659 85.2243 16.1388 84.9236 16.9999 85.2058C17.1237 85.2464 17.2436 85.2981 17.3581 85.3603C17.4136 85.3452 17.4708 85.3318 17.5263 85.3217C17.479 85.1341 17.4609 84.9403 17.4724 84.7472C17.1769 84.5476 16.9372 84.2758 16.7762 83.9577C16.6152 83.6397 16.5382 83.2858 16.5525 82.9297C16.2543 82.7337 16.0139 82.4617 15.8562 82.1419C15.6919 81.825 15.6147 81.4702 15.6325 81.1138C15.3346 80.9169 15.0943 80.6444 14.9363 80.3243C14.5225 79.5046 14.6907 78.5824 15.3214 78.2632C15.9521 77.944 16.7964 78.3556 17.2118 79.1753C17.3758 79.4929 17.4524 79.8482 17.4338 80.2051C17.7301 80.4035 17.9704 80.6748 18.1315 80.9928C18.2927 81.3108 18.3692 81.6648 18.3537 82.0209C18.65 82.2199 18.8902 82.4915 19.0513 82.8097C19.2123 83.128 19.2889 83.4822 19.2737 83.8385C19.5701 84.0369 19.8104 84.3082 19.9715 84.6262C20.1326 84.9442 20.2091 85.2982 20.1936 85.6543C20.4922 85.851 20.7331 86.1235 20.8916 86.4438C20.9672 86.5988 21.0237 86.7624 21.0598 86.931C21.1634 86.7787 21.2899 86.6433 21.4348 86.5295C21.4521 86.4 21.4814 86.2723 21.5223 86.1482C21.8065 85.2881 22.565 84.764 23.2192 84.9723C23.8735 85.1806 24.1728 86.0591 23.892 86.9192C23.7759 87.2885 23.5529 87.6153 23.2512 87.8582C23.2337 87.9872 23.2044 88.1142 23.1637 88.2378C23.0257 88.6938 22.7182 89.0796 22.3043 89.3163C22.3368 89.4262 22.3604 89.5385 22.375 89.6522C22.5486 89.8187 22.6925 90.0135 22.8005 90.2284C22.9105 90.4428 22.9822 90.6747 23.0124 90.9137C23.1867 91.08 23.3311 91.2749 23.4396 91.4899C23.5494 91.7044 23.6211 91.9363 23.6515 92.1753C23.8262 92.3418 23.9707 92.5373 24.0786 92.7531C24.4941 93.5729 24.3225 94.4968 23.6952 94.8126C23.0679 95.1284 22.2202 94.7219 21.8048 93.9004C21.6953 93.6858 21.6236 93.454 21.5929 93.2151C21.2425 92.8793 21.0171 92.4344 20.9538 91.9535C20.6034 91.6178 20.378 91.1729 20.3147 90.692C20.1406 90.5256 19.9961 90.3308 19.8875 90.1158C19.7788 89.9009 19.7071 89.6692 19.6756 89.4305C19.502 89.264 19.3581 89.0692 19.2501 88.8543C19.1401 88.6399 19.0684 88.408 19.0382 88.169C18.9299 88.0682 18.8335 87.9555 18.7506 87.833C18.4046 87.9037 18.046 87.8817 17.7113 87.7692C17.5869 87.7277 17.4665 87.6755 17.3514 87.6129C16.9773 87.7122 16.5822 87.6981 16.2161 87.5726C15.3634 87.2887 14.837 86.5312 15.0506 85.8777Z" fill="#3F3D56"/>
<g opacity="0.1">
<path opacity="0.1" d="M16.5693 83.3025C16.6585 83.3903 16.7566 83.4685 16.862 83.536C16.8477 83.7772 16.8797 84.0189 16.9562 84.2482C16.8886 84.1566 16.8289 84.0594 16.7779 83.9576C16.6727 83.7522 16.6022 83.5309 16.5693 83.3025Z" fill="black"/>
<path opacity="0.1" d="M15.6494 81.4883C15.739 81.575 15.8371 81.6527 15.9421 81.7201C15.9279 81.9619 15.9599 82.2041 16.0362 82.434C15.8325 82.1547 15.6998 81.8302 15.6494 81.4883Z" fill="black"/>
<path opacity="0.1" d="M17.74 80.8114C17.748 80.6869 17.7435 80.562 17.7266 80.4385C17.891 80.6006 18.0279 80.7884 18.1319 80.9945C18.1827 81.0963 18.2254 81.2019 18.2597 81.3103C18.1195 81.1127 17.9432 80.9434 17.74 80.8114Z" fill="black"/>
<path opacity="0.1" d="M23.5758 91.8073C23.5023 91.7043 23.4189 91.6087 23.3269 91.5218C23.3116 91.4079 23.2868 91.2955 23.2529 91.1858C23.3259 91.2844 23.3906 91.3889 23.4463 91.4982C23.4974 91.5978 23.5407 91.7011 23.5758 91.8073Z" fill="black"/>
<path opacity="0.1" d="M22.9318 90.5458C22.8583 90.4428 22.775 90.3472 22.6829 90.2603C22.6692 90.1465 22.6456 90.034 22.6123 89.9243C22.7509 90.1117 22.8577 90.3205 22.9285 90.5425L22.9318 90.5458Z" fill="black"/>
<path opacity="0.1" d="M17.491 85.1235C17.5793 85.2106 17.6769 85.2878 17.782 85.3537C17.7694 85.5468 17.7875 85.7407 17.8358 85.9282C17.7791 85.9382 17.7229 85.951 17.6676 85.9668C17.5524 85.9048 17.432 85.8531 17.3077 85.8123C16.4466 85.53 15.5737 85.8307 15.3601 86.4842C15.3066 86.6468 15.2967 86.8205 15.3315 86.9881C15.1932 86.8427 15.0948 86.6641 15.0458 86.4696C14.9969 86.275 14.9992 86.0712 15.0524 85.8778C15.2676 85.2243 16.1405 84.9236 17.0016 85.2058C17.1254 85.2464 17.2453 85.2981 17.3598 85.3604C17.4153 85.3453 17.4725 85.3318 17.528 85.3218C17.5118 85.2565 17.4995 85.1903 17.491 85.1235Z" fill="black"/>
<path opacity="0.1" d="M23.8921 92.4407C23.9655 92.5397 24.0302 92.6447 24.0855 92.7548C24.1368 92.8565 24.1801 92.9621 24.215 93.0706C24.1415 92.9671 24.0581 92.8709 23.9661 92.7833C23.9511 92.6672 23.9264 92.5526 23.8921 92.4407Z" fill="black"/>
<path opacity="0.1" d="M18.6599 82.6307C18.668 82.5063 18.6635 82.3814 18.6465 82.2578C18.8113 82.4196 18.9482 82.6075 19.0518 82.8138C19.1026 82.915 19.1453 83.0201 19.1796 83.1279C19.0394 82.9309 18.8631 82.7621 18.6599 82.6307Z" fill="black"/>
<path opacity="0.1" d="M19.9901 90.0384C20.0059 90.1639 20.0335 90.2876 20.0725 90.4079C19.9324 90.216 19.8255 90.0019 19.7563 89.7747C19.8262 89.8694 19.9045 89.9576 19.9901 90.0384Z" fill="black"/>
<path opacity="0.1" d="M21.2668 92.5614C21.2837 92.6869 21.3119 92.8106 21.3509 92.931C21.2833 92.8394 21.2236 92.7422 21.1726 92.6404C21.1173 92.5325 21.0711 92.4201 21.0347 92.3044C21.1051 92.3961 21.1827 92.482 21.2668 92.5614Z" fill="black"/>
<path opacity="0.1" d="M20.6293 91.3C20.645 91.4255 20.6726 91.5492 20.7117 91.6695C20.6447 91.5775 20.5851 91.4803 20.5334 91.3789C20.4779 91.2711 20.4318 91.1587 20.3955 91.043C20.4657 91.1353 20.5439 91.2213 20.6293 91.3Z" fill="black"/>
<path opacity="0.1" d="M19.3509 88.7754C19.3664 88.9014 19.394 89.0257 19.4333 89.1466C19.3695 89.0544 19.3132 88.9572 19.2651 88.856C19.2087 88.7483 19.162 88.6359 19.1255 88.52C19.1927 88.6118 19.2681 88.6973 19.3509 88.7754Z" fill="black"/>
<path opacity="0.1" d="M23.5337 85.5854C22.8795 85.3704 22.121 85.8945 21.8385 86.7612C21.7976 86.8854 21.7683 87.013 21.751 87.1425C21.6056 87.2556 21.4785 87.3905 21.3743 87.5423C21.3353 87.3735 21.276 87.2099 21.1977 87.0552C21.1691 86.9981 21.1372 86.9427 21.1035 86.8872C21.199 86.7548 21.3122 86.6361 21.4399 86.5345C21.4572 86.4049 21.4864 86.2773 21.5273 86.1531C21.8116 85.2931 22.5701 84.769 23.2243 84.9773C23.4119 85.0492 23.5777 85.1684 23.7056 85.3232C23.8335 85.478 23.9191 85.6632 23.9542 85.8609C23.8399 85.7347 23.6952 85.6398 23.5337 85.5854Z" fill="black"/>
<path opacity="0.1" d="M20.4998 86.2623C20.5078 86.1379 20.5033 86.0129 20.4863 85.8894C20.6511 86.0512 20.7881 86.2391 20.8916 86.4454C20.9424 86.5472 20.9852 86.6528 21.0195 86.7612C20.8798 86.5633 20.7033 86.3939 20.4998 86.2623Z" fill="black"/>
<path opacity="0.1" d="M19.5799 84.4447C19.5878 84.3202 19.5833 84.1953 19.5664 84.0718C19.7304 84.2342 19.8673 84.422 19.9717 84.6278C20.0225 84.7296 20.0652 84.8352 20.0995 84.9436C19.9594 84.746 19.7831 84.5767 19.5799 84.4447Z" fill="black"/>
<path opacity="0.1" d="M21.9059 93.8232C21.9221 93.9493 21.9502 94.0736 21.99 94.1944C21.9228 94.1019 21.8632 94.0042 21.8117 93.9021C21.7564 93.7942 21.7103 93.6818 21.6738 93.5662C21.7443 93.6578 21.8219 93.7438 21.9059 93.8232Z" fill="black"/>
</g>
<path opacity="0.1" d="M13.7945 77.4806C13.4964 77.2846 13.256 77.0126 13.0983 76.6927C12.6829 75.8713 12.8544 74.9491 13.4817 74.6316C14.109 74.3141 14.9567 74.7223 15.3721 75.5438C15.5364 75.8606 15.613 76.2155 15.5941 76.5718C15.8904 76.7708 16.1306 77.0424 16.2916 77.3606C16.4527 77.6788 16.5293 78.0331 16.5141 78.3893C16.8124 78.5856 17.0533 78.8575 17.212 79.1772C17.2625 79.2779 17.3052 79.3824 17.3398 79.4896C17.117 79.172 16.7963 78.936 16.4266 78.8177C16.3854 78.9489 16.3185 79.0706 16.2296 79.1757C16.1408 79.2807 16.0319 79.3671 15.9093 79.4296C15.7867 79.4922 15.6529 79.5297 15.5156 79.54C15.3783 79.5503 15.2403 79.5332 15.1097 79.4896C14.985 79.8573 14.985 80.2558 15.1097 80.6235C15.0465 80.5321 14.9903 80.436 14.9415 80.3362C14.7772 80.0194 14.7 79.6646 14.7179 79.3082C14.4219 79.1089 14.182 78.8372 14.021 78.519C13.8599 78.2009 13.7831 77.8468 13.7979 77.4906L13.7945 77.4806Z" fill="#3F3D56"/>
<path opacity="0.1" d="M3.6832 65.8328C3.42808 65.7137 3.1814 65.5773 2.94488 65.4247L5.68288 63.4257L2.46387 65.0803C1.81303 64.5634 1.27463 63.9193 0.881634 63.1874C0.488635 62.4555 0.2493 61.6512 0.178277 60.8237L5.65093 60.8808L0.166504 59.9636C0.213727 59.128 0.432739 58.311 0.809896 57.5636C1.18705 56.8161 1.71427 56.1543 2.35871 55.6193C3.00314 55.0842 3.75098 54.6875 4.55564 54.4537C5.3603 54.22 6.20453 54.1542 7.03573 54.2606C7.86694 54.367 8.66731 54.6432 9.38698 55.072C10.1067 55.5008 10.7302 56.073 11.2188 56.753C11.7074 57.433 12.0505 58.2062 12.2268 59.0245C12.4032 59.8427 12.4089 60.6885 12.2437 61.5091C12.6409 61.6926 13.0175 61.9179 13.3671 62.181L10.508 66.152L13.9406 62.6782C14.665 63.3888 15.2005 64.2686 15.4989 65.2379C15.7972 66.2073 15.8489 67.2356 15.6494 68.2299C16.6877 68.713 17.569 69.4782 18.1925 70.438C18.816 71.3978 19.1564 72.5135 19.1749 73.6574C19.1934 74.8014 18.8892 75.9275 18.2971 76.9069C17.705 77.8863 16.8489 78.6795 15.8267 79.1958C14.8044 79.7121 13.6574 79.9307 12.5166 79.8265C11.3759 79.7223 10.2875 79.2996 9.37603 78.6067C8.4645 77.9138 7.76661 76.9787 7.36215 75.9083C6.95769 74.8378 6.86299 73.6754 7.08889 72.5537C5.84954 71.9768 4.84011 71.0009 4.22253 69.7824C3.60495 68.564 3.41502 67.1737 3.6832 65.8345V65.8328Z" fill="#7052CC"/>
<path opacity="0.1" d="M15.1114 64.2841C15.7317 65.5034 15.9213 66.8962 15.6496 68.2366C16.6879 68.7197 17.5693 69.4849 18.1927 70.4447C18.8162 71.4045 19.1566 72.5202 19.1751 73.6642C19.1936 74.8081 18.8894 75.9342 18.2973 76.9136C17.7052 77.893 16.8491 78.6862 15.8269 79.2025C14.8046 79.7188 13.6576 79.9374 12.5168 79.8332C11.3761 79.7291 10.2878 79.3064 9.37623 78.6135C8.46471 77.9205 7.76681 76.9854 7.36235 75.915C6.95789 74.8446 6.8632 73.6821 7.08909 72.5604C5.88995 72.0044 14.8036 63.6743 15.1114 64.2841Z" fill="black"/>
<path opacity="0.1" d="M8.23609 55.4617C8.73674 55.4617 9.14259 55.0563 9.14259 54.5563C9.14259 54.0562 8.73674 53.6509 8.23609 53.6509C7.73544 53.6509 7.32959 54.0562 7.32959 54.5563C7.32959 55.0563 7.73544 55.4617 8.23609 55.4617Z" fill="#7052CC"/>
<path opacity="0.1" d="M2.94508 56.043C3.44572 56.043 3.85158 55.6376 3.85158 55.1376C3.85158 54.6375 3.44572 54.2322 2.94508 54.2322C2.44443 54.2322 2.03857 54.6375 2.03857 55.1376C2.03857 55.6376 2.44443 56.043 2.94508 56.043Z" fill="#7052CC"/>
<path opacity="0.1" d="M0.906502 64.1714C1.40715 64.1714 1.813 63.7661 1.813 63.266C1.813 62.766 1.40715 62.3606 0.906502 62.3606C0.405855 62.3606 0 62.766 0 63.266C0 63.7661 0.405855 64.1714 0.906502 64.1714Z" fill="#7052CC"/>
<path opacity="0.1" d="M3.65943 68.2315C4.16008 68.2315 4.56593 67.8261 4.56593 67.3261C4.56593 66.826 4.16008 66.4207 3.65943 66.4207C3.15878 66.4207 2.75293 66.826 2.75293 67.3261C2.75293 67.8261 3.15878 68.2315 3.65943 68.2315Z" fill="#7052CC"/>
<path opacity="0.1" d="M7.42017 76.6624C7.92082 76.6624 8.32668 76.257 8.32668 75.757C8.32668 75.2569 7.92082 74.8516 7.42017 74.8516C6.91953 74.8516 6.51367 75.2569 6.51367 75.757C6.51367 76.257 6.91953 76.6624 7.42017 76.6624Z" fill="#7052CC"/>
<path opacity="0.1" d="M7.42017 76.6624C7.92082 76.6624 8.32668 76.257 8.32668 75.757C8.32668 75.2569 7.92082 74.8516 7.42017 74.8516C6.91953 74.8516 6.51367 75.2569 6.51367 75.757C6.51367 76.257 6.91953 76.6624 7.42017 76.6624Z" fill="black"/>
<path opacity="0.1" d="M15.7839 67.1128C16.2846 67.1128 16.6904 66.7075 16.6904 66.2074C16.6904 65.7074 16.2846 65.302 15.7839 65.302C15.2833 65.302 14.8774 65.7074 14.8774 66.2074C14.8774 66.7075 15.2833 67.1128 15.7839 67.1128Z" fill="#7052CC"/>
<path opacity="0.1" d="M15.7839 67.1128C16.2846 67.1128 16.6904 66.7075 16.6904 66.2074C16.6904 65.7074 16.2846 65.302 15.7839 65.302C15.2833 65.302 14.8774 65.7074 14.8774 66.2074C14.8774 66.7075 15.2833 67.1128 15.7839 67.1128Z" fill="black"/>
<path opacity="0.1" d="M16.7511 81.0871C17.3532 80.783 17.5348 79.923 17.1833 79.1284C17.2018 79.162 17.2203 79.1939 17.2371 79.2275C17.6526 80.0489 17.481 80.9712 16.852 81.2886C16.223 81.6061 15.3787 81.1979 14.9633 80.3765C14.9465 80.3429 14.9297 80.3093 14.9146 80.274C15.3468 81.0283 16.149 81.3911 16.7511 81.0871Z" fill="black"/>
<path opacity="0.1" d="M17.644 82.8542C18.246 82.5501 18.4294 81.6884 18.0779 80.8955C18.0964 80.9274 18.1149 80.961 18.1317 80.9946C18.5471 81.816 18.3755 82.7383 17.7465 83.0557C17.1175 83.3732 16.2733 82.965 15.8579 82.1436C15.8394 82.11 15.8242 82.0747 15.8091 82.0411C16.2413 82.7987 17.0452 83.1582 17.644 82.8542Z" fill="black"/>
<path opacity="0.1" d="M18.539 84.6195C19.1411 84.3155 19.3244 83.4554 18.9712 82.6609C18.9914 82.6945 19.0082 82.7264 19.0267 82.7617C19.4421 83.5814 19.2689 84.5053 18.6416 84.8211C18.0142 85.1369 17.1683 84.7304 16.7529 83.909C16.7344 83.8754 16.7192 83.8418 16.7041 83.8065C17.1346 84.5607 17.9369 84.9236 18.539 84.6195Z" fill="black"/>
<path opacity="0.1" d="M19.4335 86.3866C20.0356 86.0826 20.2189 85.2225 19.8657 84.428C19.8842 84.4599 19.9027 84.4935 19.9195 84.5271C20.3366 85.3485 20.1634 86.2707 19.5361 86.5882C18.9088 86.9057 18.0611 86.4975 17.6457 85.6761C17.6289 85.6425 17.6138 85.6072 17.5986 85.5736C18.0292 86.3261 18.8314 86.6907 19.4335 86.3866Z" fill="black"/>
<path opacity="0.1" d="M20.3282 88.1523C20.9303 87.8482 21.112 86.9882 20.7605 86.1953C20.779 86.2272 20.7975 86.2608 20.8143 86.2944C21.2297 87.1158 21.0582 88.0381 20.4308 88.3555C19.8035 88.673 18.9559 88.2631 18.5405 87.4434C18.5237 87.4081 18.5085 87.3745 18.4917 87.3409C18.9239 88.0935 19.7262 88.4563 20.3282 88.1523Z" fill="black"/>
<path opacity="0.1" d="M21.2228 89.9193C21.8249 89.6153 22.0065 88.7552 21.655 87.9607C21.6735 87.9943 21.692 88.0262 21.7088 88.0598C22.1242 88.8812 21.9527 89.8034 21.3254 90.1209C20.6981 90.4384 19.8504 90.0302 19.435 89.2088C19.4182 89.1752 19.4014 89.1416 19.3862 89.1063C19.8185 89.8538 20.6207 90.2234 21.2228 89.9193Z" fill="black"/>
<path opacity="0.1" d="M22.1178 91.6864C22.7182 91.3824 22.9015 90.5206 22.55 89.7278C22.5685 89.7597 22.587 89.7933 22.6038 89.8269C23.0193 90.6483 22.8477 91.5705 22.2187 91.888C21.5897 92.2055 20.7454 91.7956 20.33 90.9759C20.3132 90.9406 20.2964 90.907 20.2812 90.8734C20.7135 91.626 21.5157 91.9905 22.1178 91.6864Z" fill="black"/>
<path opacity="0.1" d="M23.0107 93.452C23.6127 93.148 23.7961 92.288 23.4429 91.4934C23.4631 91.527 23.4799 91.5589 23.4984 91.5942C23.9138 92.4139 23.7406 93.3378 23.1132 93.6536C22.4859 93.9694 21.64 93.5629 21.2246 92.7415C21.2061 92.7079 21.1909 92.6743 21.1758 92.639C21.608 93.3933 22.4086 93.7561 23.0107 93.452Z" fill="black"/>
<path opacity="0.1" d="M23.6046 94.6127C24.2067 94.3087 24.3883 93.4486 24.0368 92.6541C24.0553 92.6876 24.0738 92.7196 24.0907 92.7548C24.5061 93.5746 24.3345 94.4985 23.7072 94.8143C23.0799 95.1301 22.2322 94.7236 21.8168 93.9021C21.8 93.8685 21.7832 93.835 21.7681 93.7997C22.1952 94.5573 22.9975 94.9167 23.6046 94.6127Z" fill="black"/>
<path opacity="0.1" d="M7.4354 86.7514C7.342 86.4842 7.28542 86.2056 7.26722 85.9232C7.20503 85.923 7.14356 85.91 7.08663 85.885C7.02971 85.8599 6.97856 85.8235 6.93638 85.7778C6.8942 85.7322 6.86189 85.6784 6.84147 85.6197C6.82106 85.561 6.81298 85.4988 6.81773 85.4368C6.82248 85.3749 6.83997 85.3146 6.86909 85.2597C6.89822 85.2048 6.93836 85.1565 6.98701 85.1179C7.03567 85.0792 7.09178 85.0509 7.15186 85.0349C7.21193 85.0188 7.27468 85.0153 7.33618 85.0245C7.43709 84.5667 7.63869 84.137 7.92637 83.7666C8.21404 83.3962 8.58061 83.0943 8.9995 82.8828C8.9453 82.7756 8.93594 82.6514 8.97348 82.5373C9.01101 82.4233 9.09236 82.3288 9.19964 82.2747C9.30691 82.2206 9.43132 82.2112 9.5455 82.2487C9.65967 82.2862 9.75426 82.3675 9.80846 82.4746C9.82814 82.5126 9.84176 82.5534 9.84882 82.5955C10.3465 82.5043 10.8587 82.5329 11.3431 82.679C11.8275 82.825 12.27 83.0844 12.6339 83.4354C12.9119 83.39 13.1947 83.3821 13.4748 83.4119L13.8415 85.0783L13.8499 83.4707C14.2669 83.567 14.66 83.7466 15.0057 83.9987C15.3513 84.2509 15.6422 84.5703 15.8609 84.9377C16.0796 85.3052 16.2216 85.7131 16.2782 86.1368C16.3348 86.5605 16.305 86.9913 16.1904 87.4032C16.0759 87.8151 15.879 88.1995 15.6117 88.5334C15.3444 88.8672 15.0122 89.1436 14.6351 89.3457C14.258 89.5479 13.8438 89.6717 13.4175 89.7097C12.9912 89.7476 12.5616 89.699 12.1546 89.5667C12.1103 89.6448 12.0443 89.7084 11.9646 89.7498C11.8814 89.7917 11.7874 89.8071 11.6952 89.7938C11.6031 89.7806 11.5172 89.7393 11.4493 89.6757C11.3814 89.6121 11.3347 89.5292 11.3155 89.4382C11.2964 89.3471 11.3057 89.2524 11.3423 89.1669C11.1981 89.0663 11.0625 88.954 10.937 88.8309C10.2754 88.938 9.59694 88.8331 8.99874 88.5314C8.40055 88.2296 7.91334 87.7464 7.60695 87.1511L9.314 86.8639L7.4354 86.7514Z" fill="#7052CC"/>
<g opacity="0.1">
<path opacity="0.1" d="M10.0724 87.5609C10.703 86.721 11.0899 85.7467 11.5339 84.8027C11.7117 84.4142 11.9116 84.0362 12.1326 83.6705L12.4689 83.2825C12.5261 83.3312 12.5816 83.3799 12.6371 83.4303C12.9151 83.3848 13.198 83.3769 13.478 83.4068L13.8447 85.0731L13.8497 83.4706C14.2667 83.5669 14.6599 83.7465 15.0055 83.9986C15.3511 84.2508 15.6421 84.5702 15.8608 84.9376C16.0795 85.3051 16.2214 85.713 16.2781 86.1367C16.3347 86.5604 16.3048 86.9912 16.1903 87.4031C16.0757 87.815 15.8789 88.1994 15.6116 88.5333C15.3443 88.8671 15.012 89.1435 14.6349 89.3456C14.2578 89.5478 13.8436 89.6716 13.4173 89.7096C12.991 89.7475 12.5614 89.6989 12.1544 89.5666C12.1102 89.6447 12.0442 89.7083 11.9644 89.7497C11.8813 89.7916 11.7873 89.807 11.6951 89.7937C11.6029 89.7805 11.5171 89.7392 11.4492 89.6756C11.3812 89.612 11.3345 89.5291 11.3154 89.438C11.2963 89.347 11.3056 89.2523 11.3421 89.1668C11.1979 89.0662 11.0623 88.9539 10.9368 88.8308C10.289 88.9346 9.62484 88.8366 9.03467 88.5503C9.43162 88.2784 9.78202 87.9443 10.0724 87.5609Z" fill="black"/>
</g>
<path opacity="0.1" d="M21.2349 83.9897C21.208 83.9368 21.1918 83.8791 21.1873 83.82C21.1828 83.7608 21.1901 83.7013 21.2087 83.645C21.2273 83.5886 21.2569 83.5365 21.2957 83.4916C21.3345 83.4467 21.3819 83.4099 21.435 83.3833C21.4985 83.3509 21.5689 83.3342 21.6402 83.3346C21.7685 82.6543 22.1164 82.0348 22.6308 81.5708C22.5476 81.248 22.5164 80.914 22.5383 80.5814L24.2016 80.3026L22.5854 80.2001C22.6147 80.0484 22.6551 79.899 22.7065 79.7533C22.643 79.7111 22.5914 79.6532 22.5568 79.5853C22.5164 79.5044 22.5011 79.4132 22.5129 79.3236C22.5247 79.2339 22.5631 79.1498 22.6231 79.0821C22.6831 79.0144 22.762 78.9661 22.8497 78.9436C22.9374 78.921 23.0298 78.9251 23.1152 78.9554C23.4122 78.5333 23.8091 78.1911 24.2706 77.9593C24.8141 77.6838 25.4256 77.5707 26.0319 77.6336C26.6381 77.6966 27.2133 77.9328 27.6885 78.314C28.1637 78.6952 28.5188 79.2052 28.7111 79.7828C28.9034 80.3605 28.9248 80.9813 28.7728 81.5708C28.8519 81.6047 28.9196 81.6603 28.9681 81.7313C29.0167 81.8022 29.0439 81.8855 29.0467 81.9713C29.0496 82.0572 29.0278 82.1421 28.9841 82.216C28.9403 82.29 28.8764 82.3499 28.7997 82.3889C28.7422 82.418 28.6792 82.4345 28.6149 82.4374C28.5505 82.4403 28.4862 82.4295 28.4264 82.4057C28.264 82.6775 28.0616 82.9232 27.8259 83.1347C27.9983 83.8046 27.9469 84.5124 27.6796 85.1505L25.4546 84.5659L27.4442 85.6124C27.1455 86.0885 26.7254 86.4767 26.2269 86.7372C25.7285 86.9977 25.1697 87.1211 24.6078 87.0947C24.0459 87.0684 23.5011 86.8933 23.0292 86.5874C22.5574 86.2814 22.1755 85.8557 21.9227 85.3537C21.7468 85.0043 21.6362 84.6258 21.5965 84.2367C21.5201 84.2298 21.4468 84.2034 21.3835 84.1602C21.3202 84.117 21.269 84.0583 21.2349 83.9897Z" fill="#7052CC"/>
<path opacity="0.1" d="M21.2349 83.9897C21.208 83.9367 21.1918 83.879 21.1873 83.8199C21.1828 83.7607 21.1901 83.7012 21.2087 83.6449C21.2273 83.5885 21.2569 83.5364 21.2957 83.4915C21.3345 83.4466 21.3819 83.4098 21.435 83.3832C21.4985 83.3508 21.5689 83.3341 21.6402 83.3345C21.7685 82.6543 22.1164 82.0347 22.6308 81.5707C22.6173 81.5187 22.6056 81.4649 22.5955 81.4128C22.6558 81.4558 22.7121 81.5042 22.7637 81.5573C23.0647 81.8933 23.2194 82.3283 23.5154 82.6609C23.8863 83.0431 24.385 83.2756 24.9164 83.3144C25.4428 83.3506 25.9717 83.3081 26.4855 83.1884C26.9093 83.0793 27.3465 83.0313 27.7839 83.0456L27.9084 83.0624L27.831 83.1346C28.0034 83.8045 27.952 84.5123 27.6847 85.1504L25.4546 84.5658L27.4442 85.6123C27.1455 86.0884 26.7254 86.4766 26.2269 86.7371C25.7285 86.9976 25.1697 87.121 24.6078 87.0947C24.0459 87.0683 23.5011 86.8932 23.0292 86.5873C22.5574 86.2813 22.1755 85.8556 21.9227 85.3536C21.7468 85.0043 21.6362 84.6257 21.5965 84.2366C21.5201 84.2297 21.4468 84.2034 21.3835 84.1601C21.3202 84.1169 21.269 84.0582 21.2349 83.9897Z" fill="black"/>
</g>
<path opacity="0.1" d="M58.2498 8.71992C57.5849 8.59385 56.8974 8.66871 56.2753 8.93493C55.9022 9.10103 55.4982 9.18686 55.0896 9.18686C54.6811 9.18686 54.2771 9.10103 53.904 8.93493C53.4629 8.74183 52.9851 8.64677 52.5036 8.65634C52.0222 8.66592 51.5485 8.77989 51.1155 8.99037C50.8682 9.12082 50.5929 9.18942 50.3133 9.19026C49.1831 9.19026 48.2429 8.05304 48.0479 6.55298C48.2732 6.388 48.465 6.18162 48.6129 5.9449C49.2756 4.87823 50.2948 4.19287 51.4535 4.19287C52.6123 4.19287 53.6214 4.86479 54.2841 5.92474C54.482 6.24305 54.7587 6.50513 55.0874 6.68577C55.4161 6.8664 55.7858 6.95951 56.161 6.95613H56.1912C57.0826 6.95109 57.8613 7.67173 58.2498 8.71992Z" fill="#7052CC"/>
<path opacity="0.1" d="M61.684 4.01639L59.8575 5.17377L60.9658 3.15802C60.6515 2.90787 60.2627 2.76955 59.8609 2.76494H59.8323C59.7055 2.76649 59.5789 2.75693 59.4539 2.73639L58.8333 3.12946L59.099 2.64736C58.6617 2.49535 58.283 2.21047 58.0159 1.83266L56.9042 2.52641L57.6039 1.25481C56.9564 0.477061 56.0818 0 55.1215 0C53.9694 0 52.9351 0.685356 52.2792 1.75203C52.083 2.07063 51.8058 2.3317 51.4758 2.50872C51.1459 2.68573 50.7749 2.77239 50.4006 2.7599H50.3451C49.0737 2.7599 48.041 4.19949 48.041 5.97839C48.041 7.7573 49.0737 9.1952 50.3451 9.1952C50.6248 9.19435 50.9001 9.12576 51.1473 8.9953C51.5803 8.78465 52.0541 8.67072 52.5356 8.66144C53.0172 8.65216 53.495 8.74774 53.9358 8.94155C54.3091 9.10713 54.713 9.19269 55.1215 9.19269C55.53 9.19269 55.9339 9.10713 56.3072 8.94155C56.7446 8.75186 57.2178 8.65847 57.6947 8.66775C58.1715 8.67702 58.6407 8.78874 59.0704 8.9953C59.3158 9.12227 59.5879 9.18907 59.8642 9.19016C61.1374 9.19016 62.1683 7.75058 62.1683 5.97335C62.1728 5.2909 62.0063 4.61816 61.684 4.01639Z" fill="#7052CC"/>
<path opacity="0.1" d="M20.2407 31.9917C19.291 31.8122 18.3093 31.9186 17.4203 32.2974C16.8867 32.5336 16.3094 32.655 15.7258 32.6535C15.1422 32.6521 14.5654 32.5279 14.0331 32.289C13.4032 32.0132 12.7208 31.8774 12.0331 31.891C11.3455 31.9046 10.669 32.0674 10.0505 32.368C9.69682 32.5541 9.30331 32.6521 8.90352 32.6535C7.28897 32.6535 5.9452 31.0292 5.66602 28.8858C5.98864 28.651 6.26277 28.3561 6.47329 28.0173C7.42016 26.4937 8.88671 25.5144 10.5332 25.5144C12.1797 25.5144 13.6278 26.482 14.5696 27.9887C14.8526 28.4454 15.2492 28.8211 15.7208 29.0793C16.1924 29.3374 16.7228 29.4693 17.2605 29.4619H17.3025C18.5774 29.4602 19.6907 30.49 20.2407 31.9917Z" fill="#7052CC"/>
<path opacity="0.1" d="M25.1518 25.2641L22.5416 26.917L24.1259 24.0395C23.6769 23.6816 23.1211 23.4835 22.5467 23.4768H22.5046C22.3233 23.4794 22.1421 23.4659 21.9631 23.4365L21.0818 24.0059L21.4619 23.3172C20.8348 23.0983 20.2931 22.6867 19.9146 22.1413L18.3304 23.1492L19.3277 21.3183C18.401 20.2079 17.1531 19.5276 15.7807 19.5276C14.1342 19.5276 12.6677 20.5052 11.7208 22.0288C11.4403 22.486 11.0435 22.8607 10.5708 23.1148C10.0981 23.3689 9.56639 23.4932 9.02988 23.4751H8.94074C7.12269 23.4751 5.64941 25.5329 5.64941 28.0727C5.64941 30.6126 7.12269 32.6703 8.94074 32.6703C9.34079 32.6692 9.73452 32.5706 10.0877 32.3831C10.7063 32.0827 11.3829 31.9203 12.0705 31.9069C12.7582 31.8936 13.4405 32.0297 14.0703 32.3058C14.6026 32.5447 15.1794 32.6689 15.763 32.6703C16.3466 32.6718 16.924 32.5504 17.4575 32.3142C18.0826 32.0432 18.7588 31.9097 19.4402 31.9227C20.1215 31.9358 20.7921 32.0951 21.4064 32.3898C21.7563 32.5727 22.1451 32.6689 22.54 32.6703C24.358 32.6703 25.8313 30.6109 25.8313 28.0727C25.844 27.0944 25.6103 26.1287 25.1518 25.2641Z" fill="#7052CC"/>
<path opacity="0.1" d="M125.795 15.271C126.46 15.1451 127.148 15.2199 127.77 15.4861C128.143 15.6522 128.546 15.7381 128.955 15.7381C129.363 15.7381 129.767 15.6522 130.14 15.4861C130.581 15.293 131.058 15.1979 131.54 15.2075C132.021 15.217 132.495 15.331 132.928 15.5415C133.175 15.6718 133.451 15.7403 133.73 15.7414C134.86 15.7414 135.802 14.6042 135.997 13.1041C135.772 12.9396 135.58 12.7331 135.432 12.496C134.773 11.426 133.742 10.7356 132.587 10.7356C131.431 10.7356 130.42 11.4075 129.758 12.4675C129.56 12.7872 129.283 13.0506 128.954 13.2322C128.624 13.4137 128.254 13.5073 127.878 13.5039H127.849C126.954 13.5022 126.174 14.2229 125.795 15.271Z" fill="#7052CC"/>
<path opacity="0.1" d="M122.351 10.5676L124.178 11.7216L123.068 9.70583C123.382 9.45591 123.771 9.31762 124.172 9.31275H124.203C124.33 9.31421 124.456 9.30465 124.581 9.2842L125.2 9.67727L124.934 9.19517C125.375 9.0457 125.757 8.76191 126.028 8.38383L127.136 9.08598L126.435 7.81438C127.084 7.03663 127.948 6.55957 128.919 6.55957C130.071 6.55957 131.105 7.24493 131.761 8.3116C131.957 8.63032 132.234 8.89148 132.564 9.06852C132.894 9.24555 133.265 9.33214 133.639 9.31947H133.7C134.973 9.31947 136.004 10.7591 136.004 12.538C136.004 14.3169 134.973 15.7548 133.7 15.7548C133.42 15.7535 133.145 15.685 132.898 15.5549C132.465 15.3442 131.991 15.2303 131.51 15.221C131.028 15.2117 130.55 15.3073 130.109 15.5011C129.736 15.6667 129.333 15.7522 128.924 15.7522C128.516 15.7522 128.113 15.6667 127.74 15.5011C127.302 15.3114 126.828 15.218 126.351 15.2273C125.874 15.2365 125.405 15.3483 124.975 15.5549C124.729 15.682 124.457 15.7488 124.181 15.7497C122.909 15.7497 121.877 14.3101 121.877 12.5329C121.868 11.8485 122.031 11.1728 122.351 10.5676Z" fill="#7052CC"/>
<path opacity="0.1" d="M103.538 130.5C114.22 130.5 122.879 128.996 122.879 127.14C122.879 125.285 114.22 123.781 103.538 123.781C92.8565 123.781 84.1973 125.285 84.1973 127.14C84.1973 128.996 92.8565 130.5 103.538 130.5Z" fill="#7052CC"/>
<path d="M93.4152 111.182L63.4468 110.798L63.5359 110.03L64.984 97.366H91.3028L93.2386 110.03L93.3866 110.991L93.4152 111.182Z" fill="#D0D2D5"/>
<path opacity="0.1" d="M93.3866 110.991H78.4318L63.4468 110.798L63.5359 110.03H93.2386L93.3866 110.991Z" fill="black"/>
<path d="M98.2184 110.223H58.4517V111.182H98.2184V110.223Z" fill="#D0D2D5"/>
<path d="M136.159 21.3048C136.161 20.6429 135.9 20.0072 135.433 19.5373C134.967 19.0674 134.332 18.8017 133.67 18.7986H22.6156C22.2872 18.8001 21.9623 18.8663 21.6594 18.9932C21.3566 19.1202 21.0818 19.3055 20.8506 19.5385C20.6195 19.7715 20.4366 20.0478 20.3123 20.3514C20.1881 20.6551 20.1249 20.9802 20.1265 21.3082V88.542H136.159V21.3048Z" fill="#3F3D56"/>
<path d="M20.1265 87.8701V95.745C20.1265 96.4044 20.3887 97.0367 20.8555 97.5029C21.3223 97.9692 21.9554 98.2311 22.6156 98.2311H133.67C134.33 98.2311 134.963 97.9692 135.43 97.5029C135.897 97.0367 136.159 96.4044 136.159 95.745V87.8701H20.1265Z" fill="#D0D2D5"/>
<path d="M131.932 23.0149H24.9297V83.4556H131.932V23.0149Z" fill="white"/>
<path d="M78.7196 95.2427C79.1125 95.2432 79.5004 95.1543 79.8538 94.9829C80.2073 94.8115 80.5171 94.562 80.7597 94.2533C80.8334 94.1593 80.9009 94.0606 80.9615 93.9577L79.537 93.7175L81.0759 93.7275C81.2234 93.407 81.3038 93.0597 81.3122 92.7071C81.3206 92.3544 81.2568 92.0037 81.1246 91.6765L79.061 92.7449L80.9649 91.3473C80.7861 91.0403 80.546 90.7733 80.2595 90.563C79.9731 90.3526 79.6464 90.2033 79.2997 90.1244C78.9531 90.0454 78.5938 90.0385 78.2444 90.1041C77.895 90.1697 77.5627 90.3063 77.2684 90.5055C76.9741 90.7048 76.7239 90.9623 76.5334 91.2622C76.3429 91.562 76.2162 91.8978 76.1612 92.2487C76.1061 92.5995 76.1239 92.9579 76.2133 93.3016C76.3028 93.6453 76.4621 93.967 76.6813 94.2466C76.923 94.5563 77.2322 94.8069 77.5854 94.9795C77.9386 95.1521 78.3265 95.2421 78.7196 95.2427Z" fill="#7052CC"/>
<path opacity="0.1" d="M81.313 98.2295L93.2691 110.223L91.4342 98.2295H81.313Z" fill="black"/>
<path opacity="0.1" d="M131.964 23.0215H24.8457V26.5524H131.964V23.0215Z" fill="#444053"/>
<path opacity="0.3" d="M94.2142 23.6365H62.1351C62.0813 23.6365 62.0376 23.6801 62.0376 23.7339V25.6875C62.0376 25.7413 62.0813 25.7849 62.1351 25.7849H94.2142C94.2681 25.7849 94.3118 25.7413 94.3118 25.6875V23.7339C94.3118 23.6801 94.2681 23.6365 94.2142 23.6365Z" fill="#7052CC"/>
<path d="M93.3527 24.9333H93.2737L93.2451 24.9081C93.3429 24.7906 93.3965 24.6426 93.3964 24.4898C93.3954 24.3643 93.3573 24.242 93.2867 24.1382C93.2162 24.0344 93.1165 23.9538 93.0001 23.9066C92.8838 23.8594 92.756 23.8476 92.633 23.8728C92.51 23.898 92.3972 23.9591 92.3088 24.0482C92.2205 24.1374 92.1606 24.2507 92.1367 24.3738C92.1127 24.497 92.1258 24.6244 92.1744 24.7401C92.2229 24.8558 92.3046 24.9546 92.4093 25.0239C92.5139 25.0933 92.6368 25.1301 92.7624 25.1298C92.9156 25.1292 93.0637 25.0752 93.1812 24.9769L93.2098 25.0021V25.0811L93.7025 25.5733L93.8488 25.4254L93.3527 24.9333ZM92.7624 24.9333C92.6745 24.9336 92.5885 24.9079 92.5153 24.8593C92.442 24.8108 92.3849 24.7417 92.351 24.6607C92.3171 24.5797 92.3081 24.4904 92.325 24.4043C92.342 24.3182 92.3841 24.239 92.4462 24.1768C92.5082 24.1146 92.5873 24.0722 92.6735 24.055C92.7596 24.0377 92.849 24.0464 92.9302 24.0799C93.0115 24.1134 93.0809 24.1703 93.1298 24.2432C93.1786 24.3162 93.2047 24.402 93.2047 24.4898C93.2052 24.548 93.194 24.6057 93.172 24.6596C93.1499 24.7135 93.1174 24.7625 93.0763 24.8038C93.0351 24.845 92.9862 24.8777 92.9323 24.8999C92.8784 24.9221 92.8207 24.9335 92.7624 24.9333Z" fill="#3F3D56"/>
<path opacity="0.8" d="M26.771 25.4338C27.1286 25.4338 27.4185 25.1443 27.4185 24.7871C27.4185 24.4299 27.1286 24.1404 26.771 24.1404C26.4134 24.1404 26.1235 24.4299 26.1235 24.7871C26.1235 25.1443 26.4134 25.4338 26.771 25.4338Z" fill="#FA5959"/>
<path opacity="0.8" d="M28.5523 25.4338C28.9099 25.4338 29.1998 25.1443 29.1998 24.7871C29.1998 24.4299 28.9099 24.1404 28.5523 24.1404C28.1947 24.1404 27.9048 24.4299 27.9048 24.7871C27.9048 25.1443 28.1947 25.4338 28.5523 25.4338Z" fill="#FED253"/>
<path opacity="0.8" d="M30.335 25.4338C30.6926 25.4338 30.9825 25.1443 30.9825 24.7871C30.9825 24.4299 30.6926 24.1404 30.335 24.1404C29.9774 24.1404 29.6875 24.4299 29.6875 24.7871C29.6875 25.1443 29.9774 25.4338 30.335 25.4338Z" fill="#8CCF4D"/>
<path d="M84.0994 48.9492C82.6311 47.0006 80.5036 45.771 78.1356 45.771C75.7676 45.771 73.6401 47.0006 72.1719 48.9492C72.4964 49.7444 72.9767 50.4668 73.5846 51.0741C74.3358 51.824 75.261 52.3767 76.2779 52.6828C77.2948 52.9889 78.3717 53.0391 79.4127 52.8287C80.4536 52.6183 81.4263 52.154 82.2441 51.4771C83.0618 50.8002 83.6992 49.9318 84.0994 48.9492Z" fill="#7052CC"/>
<path d="M71.101 49.9217C71.1931 49.9885 71.2924 50.0448 71.397 50.0897C72.5238 52.3658 74.8582 54.1078 77.5373 54.2539V65.0466C75.5107 64.9257 73.8877 63.906 72.5238 62.3153C72.4061 62.4043 72.3186 62.4849 72.2379 62.5605C72.1246 62.6676 72.0455 62.8057 72.0105 62.9575C71.9755 63.1093 71.9861 63.2681 72.0411 63.4138C72.1151 63.6146 72.1343 63.8314 72.0967 64.042C72.0592 64.2527 71.9662 64.4495 71.8273 64.6124C71.6885 64.7753 71.5087 64.8984 71.3065 64.969C71.1044 65.0396 70.887 65.0553 70.6768 65.0143C70.4665 64.9734 70.271 64.8773 70.1102 64.736C69.9494 64.5946 69.8291 64.4131 69.7617 64.2101C69.6943 64.007 69.6822 63.7897 69.7266 63.5804C69.771 63.3711 69.8704 63.1774 70.0145 63.0191C70.0578 62.9715 70.1051 62.9277 70.1558 62.8881C70.1849 62.8614 70.2171 62.8383 70.2516 62.8192C70.4366 62.1506 70.8756 61.5476 71.5887 60.9949C70.7861 59.625 70.2952 58.0955 70.1507 56.5149C70.0467 56.5159 69.9429 56.5226 69.8396 56.5351C69.6993 56.5539 69.5669 56.6108 69.4569 56.6997C69.3469 56.7886 69.2634 56.906 69.2156 57.039C69.138 57.2453 69.0053 57.4265 68.8319 57.5629C68.6586 57.6992 68.4511 57.7856 68.2321 57.8127C68.0131 57.8397 67.7909 57.8064 67.5895 57.7163C67.3881 57.6262 67.2152 57.4828 67.0896 57.3016C66.9639 57.1203 66.8904 56.9083 66.8768 56.6883C66.8632 56.4683 66.9102 56.2488 67.0126 56.0535C67.115 55.8583 67.269 55.6948 67.4578 55.5807C67.6466 55.4666 67.8631 55.4063 68.0838 55.4063C68.1327 55.4071 68.1815 55.4105 68.2301 55.4163C68.4108 55.2865 68.6112 55.1867 68.8238 55.1207C69.2389 54.991 69.6704 54.9214 70.1053 54.9141C70.1482 53.7935 70.3603 52.6858 70.7343 51.6284C70.4626 51.4741 70.2063 51.2941 69.9691 51.0909C69.7379 50.8846 69.5483 50.636 69.4107 50.3585C69.3379 50.2182 69.2264 50.1017 69.0895 50.0225C68.9841 49.9592 68.8879 49.8818 68.8036 49.7924C68.6541 49.6314 68.5514 49.4327 68.5067 49.2177C68.4619 49.0027 68.4768 48.7797 68.5496 48.5725C68.6225 48.3653 68.7506 48.182 68.9201 48.0422C69.0896 47.9024 69.2942 47.8114 69.5116 47.7792C69.7291 47.7469 69.9512 47.7746 70.1541 47.8592C70.357 47.9438 70.5329 48.082 70.6628 48.2591C70.7928 48.4362 70.8719 48.6454 70.8916 48.8641C70.9113 49.0828 70.8709 49.3027 70.7747 49.5001C70.85 49.6635 70.9616 49.8077 71.101 49.9217Z" fill="#7052CC"/>
<path d="M114.532 125.182C114.434 125.027 114.311 124.89 114.167 124.777C113.432 124.083 113.091 123.065 112.909 122.067C112.727 121.069 112.675 120.052 112.384 119.076C112.226 118.575 112.028 118.088 111.792 117.619C111.624 117.26 111.412 116.556 111.104 116.304C111.044 116.252 110.971 116.216 110.893 116.201C110.747 115.893 110.54 115.617 110.284 115.392C109.803 114.957 109.216 114.611 108.895 114.048C108.806 113.853 108.697 113.667 108.57 113.495C108.353 113.257 108.01 113.159 107.81 112.907C107.549 112.581 107.608 112.114 107.642 111.7C107.675 111.285 107.642 110.787 107.282 110.569C107.066 110.436 106.789 110.45 106.565 110.332C106.229 110.164 106.096 109.741 106.103 109.363C106.109 108.985 106.227 108.617 106.257 108.239C106.352 107.036 105.558 105.84 105.864 104.675C105.98 104.233 106.246 103.85 106.442 103.438C106.511 103.301 106.567 103.159 106.611 103.012C107.135 103.219 107.687 103.352 108.249 103.406C107.322 101.33 107.557 98.918 107.125 96.6872L107.181 96.6116C107.617 96.0365 107.865 95.3407 107.89 94.6194C107.89 93.7896 107.502 93.0135 107.327 92.2005C107.177 91.5101 107.184 90.7878 106.991 90.1092C106.856 89.6874 106.678 89.2809 106.459 88.8963C106.25 88.5078 106.029 88.1253 105.798 87.749C105.583 87.0368 105.367 86.3246 105.151 85.6123C104.848 84.6129 104.537 83.5966 103.948 82.7332C103.733 82.4174 103.667 81.7757 103.336 81.5842C103.067 81.4452 102.762 81.3918 102.462 81.4313C101.994 81.1693 101.584 80.7913 101.525 80.274C101.519 80.1609 101.53 80.0476 101.558 79.938H101.616C102.356 79.8708 102.731 79.219 103.116 78.6479C103.738 77.724 103.501 76.4743 103.116 75.4227C103.02 75.0908 102.847 74.7863 102.611 74.5341C102.071 74.0302 101.217 74.141 100.521 73.8975C100.287 73.8168 100.068 73.6942 99.8295 73.6371C99.367 73.5296 98.8826 73.6808 98.4588 73.8941C98.035 74.1074 97.6398 74.3829 97.1957 74.5509C96.7517 74.7189 96.2035 74.8516 96.0942 75.3068C96.0635 75.4601 96.0763 75.6189 96.1312 75.7654C96.2333 76.0575 96.4129 76.3164 96.6508 76.5146C96.4618 76.9039 96.3595 77.3295 96.3511 77.7621C96.3427 78.1947 96.4284 78.624 96.6022 79.0203C96.776 79.4167 97.0337 79.7706 97.3578 80.0578C97.6818 80.345 98.0643 80.5586 98.479 80.6838C98.6068 80.8888 98.7262 81.0971 98.8355 81.3104C99.0306 81.6867 99.1954 82.1301 99.1282 82.5333C99.0065 82.6624 98.8941 82.7999 98.7918 82.9448C98.3091 83.6167 98.035 84.4046 97.7827 85.1907C97.4438 86.1945 97.1725 87.2198 96.9704 88.2597C96.56 89.1315 96.0588 89.9647 95.7611 90.8802C95.2282 90.8809 94.6975 90.8097 94.1836 90.6685L92.7641 90.3477C92.2697 90.2351 91.755 90.1142 91.3682 89.7883C91.163 89.6203 91.0033 89.3969 90.7947 89.2306C90.5862 89.0643 90.1674 88.8695 89.9387 89.0072C89.8969 89.0326 89.858 89.0624 89.8226 89.0962C89.6141 88.6746 89.4156 88.2563 89.1735 87.8482C88.8253 87.277 88.3073 86.7546 87.6514 86.6454C87.2506 86.581 86.8406 86.6763 86.5095 86.9108C86.126 87.183 85.8855 87.7507 86.1731 88.1337C86.2449 88.2189 86.3231 88.2987 86.4069 88.3722C86.6015 88.5963 86.7755 88.8375 86.9265 89.0929C87.4687 89.8529 88.2796 90.3789 89.1953 90.5644L89.1365 90.7324C89.017 91.0818 88.7631 91.5034 88.827 91.8662L95.1406 94.0248C95.5456 94.189 95.9754 94.2838 96.412 94.3053C96.5823 94.3039 96.7518 94.2813 96.9166 94.2381V94.5606V94.574C96.9334 96.7897 96.5802 98.9902 96.5146 101.204C96.5028 101.609 96.5146 102.044 96.7702 102.36C97.0562 102.706 97.5641 102.775 98.0064 102.696C98.1129 102.678 98.2172 102.654 98.3192 102.625C98.4688 103.183 98.5767 103.75 98.6421 104.324L99.0592 107.324C99.1129 107.631 99.1348 107.943 99.1248 108.254C99.076 108.958 98.7043 109.588 98.4353 110.238C98.1662 110.888 98.0064 111.666 98.3596 112.274C98.4706 112.462 98.6236 112.622 98.7228 112.817C98.849 113.118 98.9064 113.444 98.891 113.771C98.9168 114.676 98.9415 115.582 98.965 116.489C98.8916 116.477 98.8164 116.492 98.7531 116.531C98.4033 116.803 98.442 118.098 98.4168 118.499C98.3898 119.171 98.4167 119.857 98.3797 120.535C98.336 121.45 98.1888 122.357 97.9408 123.238C97.8802 123.525 97.7477 123.791 97.5557 124.012C97.359 124.183 97.1243 124.305 96.8712 124.367C96.0332 124.629 95.1571 124.748 94.2795 124.72C93.9246 124.708 93.5546 124.674 93.225 124.809C92.8953 124.943 92.6296 125.313 92.749 125.649C92.8516 125.931 93.1627 126.065 93.4436 126.171C94.0852 126.397 94.7045 126.681 95.2936 127.021C95.5203 127.175 95.7594 127.311 96.0084 127.426C96.247 127.511 96.4939 127.572 96.745 127.607L99.7269 128.121C100.337 128.225 101.072 128.289 101.461 127.785C101.671 127.513 101.701 127.144 101.691 126.798C101.674 126.126 101.54 125.442 101.627 124.77C101.694 124.373 101.799 123.983 101.94 123.606C102.237 122.725 102.536 121.844 102.835 120.964C103.134 120.08 103.437 119.188 103.553 118.261C103.595 117.925 103.592 117.542 103.334 117.332C103.269 117.279 103.194 117.24 103.112 117.218C103.102 116.408 102.996 115.597 103.042 114.787C103.054 114.585 103.074 114.384 103.091 114.181C103.246 114.329 103.386 114.493 103.506 114.671C103.794 115.121 103.899 115.716 104.338 116.015C104.712 116.27 105.265 116.257 105.527 116.626C105.612 116.768 105.675 116.922 105.716 117.082C105.868 117.478 106.097 117.84 106.389 118.148C106.489 118.517 106.628 118.874 106.804 119.213C107.052 119.736 107.298 120.258 107.544 120.777C107.796 121.338 108.077 121.886 108.385 122.418C108.62 122.754 108.809 123.118 108.948 123.503C109.185 124.333 108.799 125.244 108.186 125.855C107.574 126.467 106.767 126.818 105.971 127.145C105.888 127.174 105.811 127.219 105.746 127.28C105.677 127.361 105.641 127.465 105.644 127.572C105.644 127.96 105.963 128.293 106.33 128.412C106.705 128.512 107.097 128.527 107.478 128.454C109.628 128.193 111.77 127.669 113.671 126.626C113.955 126.492 114.207 126.297 114.409 126.057C114.507 125.936 114.57 125.79 114.591 125.636C114.613 125.482 114.593 125.325 114.532 125.182Z" fill="url(#paint0_linear_46_1677)"/>
<path d="M105.449 87.5123C105.807 88.0621 106.144 88.6254 106.458 89.2021C106.678 89.5836 106.856 89.9874 106.991 90.4066C107.186 91.0785 107.181 91.7958 107.327 92.4811C107.495 93.2874 107.889 94.0568 107.889 94.8832C107.863 95.5993 107.615 96.2897 107.179 96.8587C106.744 97.4228 106.247 97.9356 105.696 98.3873C104.426 95.1012 103.716 91.6257 103.597 88.1052C103.58 87.6181 103.577 87.1158 103.755 86.6606C103.864 86.3751 104.389 85.5923 104.727 85.8997C104.85 86.0122 104.882 86.5195 104.957 86.6892C105.099 86.976 105.263 87.2513 105.449 87.5123Z" fill="#2F2E41"/>
<path opacity="0.1" d="M105.449 87.5123C105.807 88.0621 106.144 88.6254 106.458 89.2021C106.678 89.5836 106.856 89.9874 106.991 90.4066C107.186 91.0785 107.181 91.7958 107.327 92.4811C107.495 93.2874 107.889 94.0568 107.889 94.8832C107.863 95.5993 107.615 96.2897 107.179 96.8587C106.744 97.4228 106.247 97.9356 105.696 98.3873C104.426 95.1012 103.716 91.6257 103.597 88.1052C103.58 87.6181 103.577 87.1158 103.755 86.6606C103.864 86.3751 104.389 85.5923 104.727 85.8997C104.85 86.0122 104.882 86.5195 104.957 86.6892C105.099 86.976 105.263 87.2513 105.449 87.5123Z" fill="black"/>
<path d="M61.1089 64.5948C59.7786 65.9218 59.6188 66.5064 58.82 66.7701C58.0211 67.0339 55.1469 68.5205 56.05 70.1684L58.4785 71.7709L58.5492 71.8179L58.9209 72.9333L55.2478 79.4644C55.2478 79.4644 49.1932 76.6994 48.5995 80.7897C48.0058 84.88 48.3826 85.9971 48.2228 88.1808C48.063 90.3645 48.2749 90.9962 47.7418 90.9962C47.2087 90.9962 46.9984 89.5616 46.9984 89.5616C46.9984 89.5616 46.9648 89.4961 46.9059 89.3735C46.1138 87.729 40.737 75.6563 49.3496 67.3581C49.3496 67.3581 53.3389 67.096 54.2992 62.527C54.9619 59.369 57.2794 59.6411 58.82 60.2845C59.3207 60.4805 59.7872 60.7544 60.2024 61.0958C60.576 61.4491 60.9084 61.8436 61.193 62.2717C61.632 62.9637 61.8708 63.8322 61.1089 64.5948Z" fill="#D0D2D5"/>
<path opacity="0.1" d="M58.5494 71.8179L58.9211 72.9333L55.248 79.4644C55.248 79.4644 49.1934 76.6994 48.5997 80.7897C48.006 84.88 48.3828 85.9971 48.223 88.1808C48.0632 90.3645 48.2751 90.9962 47.742 90.9962C47.2089 90.9962 46.9986 89.5616 46.9986 89.5616C46.9986 89.5616 46.965 89.4961 46.9061 89.3735C46.6387 87.3308 45.2832 75.3825 50.1975 76.0174C50.1975 76.0174 54.1851 77.8786 54.8225 77.1362C55.327 76.5482 57.5672 73.1668 58.4787 71.7793L58.5494 71.8179Z" fill="black"/>
<path opacity="0.1" d="M61.1929 62.2616L58.7644 65.0182C58.7644 65.0182 55.9439 68.7876 55.3587 68.6281C55.1834 68.5899 55.0049 68.5691 54.8255 68.5659C54.6303 68.551 54.4433 68.4811 54.2862 68.3643C54.1291 68.2476 54.0084 68.0888 53.9379 67.9063C53.8675 67.7238 53.8503 67.5251 53.8884 67.3332C53.9264 67.1414 54.0181 66.9642 54.1528 66.8223C55.1148 65.8144 56.8874 63.9011 57.0035 63.4761C57.1195 63.0511 58.248 61.1883 58.8131 60.2761C59.3138 60.4722 59.7804 60.746 60.1956 61.0875C60.5715 61.4399 60.9061 61.8338 61.1929 62.2616Z" fill="black"/>
<path d="M129.906 101.92C129.494 102.743 127.383 105.83 126.46 107.179L126.028 107.814C126.028 107.814 125.859 108.93 123.103 107.547C120.346 106.165 55.581 78.8697 55.581 78.8697L55.1421 77.5527L58.3376 72.7737L129.322 100.166C129.322 100.166 130.439 100.857 129.906 101.92Z" fill="#454B69"/>
<path opacity="0.1" d="M126.46 107.179L126.028 107.814C126.028 107.814 125.859 108.93 123.103 107.547C120.346 106.165 55.581 78.8697 55.581 78.8697L55.1421 77.5527L126.46 107.179Z" fill="black"/>
<path d="M87.3941 89.3501C86.7365 89.2426 86.0066 89.2946 85.4953 89.7213C85.1863 89.9827 84.9909 90.3536 84.9504 90.756C84.9067 91.2214 85.1774 91.774 85.645 91.8093C85.7575 91.8105 85.87 91.8032 85.9814 91.7874C86.2767 91.7862 86.5716 91.8109 86.8626 91.8614C87.4354 91.9152 88.0128 91.831 88.5463 91.6158C89.0797 91.4007 89.5538 91.061 89.9286 90.625C90.3305 90.1211 89.8008 89.9027 89.3265 89.8019C88.6773 89.6642 88.0433 89.4542 87.3941 89.3501Z" fill="#FBBEBE"/>
<path d="M98.6423 104.52L99.0594 107.48C99.1125 107.785 99.1339 108.096 99.1233 108.405C99.0745 109.103 98.7029 109.727 98.4354 110.373C98.168 111.018 98.0049 111.79 98.3598 112.388C98.4691 112.575 98.6221 112.734 98.7214 112.927C98.8474 113.226 98.9049 113.549 98.8895 113.873L99.0039 118.073C100.302 118.161 101.605 118.154 102.902 118.051C102.953 118.053 103.003 118.038 103.044 118.007C103.078 117.964 103.095 117.91 103.092 117.854C103.15 116.872 102.978 115.887 103.034 114.905C103.054 114.545 103.104 114.187 103.111 113.826C103.131 112.363 102.408 110.93 102.627 109.484C102.695 109.119 102.785 108.758 102.896 108.404C103.587 105.884 103.441 103.237 103.288 100.635C103.29 100.593 103.278 100.551 103.254 100.517C103.229 100.492 103.197 100.475 103.163 100.468C102.427 100.248 101.649 100.208 100.894 100.351C100.14 100.494 99.4308 100.817 98.8273 101.292C98.644 101.439 98.1815 101.582 98.0604 101.759C97.8922 102.004 98.1125 102.249 98.2101 102.509C98.4262 103.162 98.5711 103.836 98.6423 104.52Z" fill="#3F3D56"/>
<path opacity="0.1" d="M98.6423 104.52L99.0594 107.48C99.1125 107.785 99.1339 108.096 99.1233 108.405C99.0745 109.103 98.7029 109.727 98.4354 110.373C98.168 111.018 98.0049 111.79 98.3598 112.388C98.4691 112.575 98.6221 112.734 98.7214 112.927C98.8474 113.226 98.9049 113.549 98.8895 113.873L99.0039 118.073C100.302 118.161 101.605 118.154 102.902 118.051C102.953 118.053 103.003 118.038 103.044 118.007C103.078 117.964 103.095 117.91 103.092 117.854C103.15 116.872 102.978 115.887 103.034 114.905C103.054 114.545 103.104 114.187 103.111 113.826C103.131 112.363 102.408 110.93 102.627 109.484C102.695 109.119 102.785 108.758 102.896 108.404C103.587 105.884 103.441 103.237 103.288 100.635C103.29 100.593 103.278 100.551 103.254 100.517C103.229 100.492 103.197 100.475 103.163 100.468C102.427 100.248 101.649 100.208 100.894 100.351C100.14 100.494 99.4308 100.817 98.8273 101.292C98.644 101.439 98.1815 101.582 98.0604 101.759C97.8922 102.004 98.1125 102.249 98.2101 102.509C98.4262 103.162 98.5711 103.836 98.6423 104.52Z" fill="black"/>
<path d="M106.441 103.628C106.244 104.037 105.98 104.416 105.862 104.855C105.556 106.012 106.349 107.206 106.254 108.392C106.224 108.767 106.108 109.131 106.1 109.506C106.091 109.881 106.229 110.297 106.562 110.47C106.786 110.584 107.067 110.573 107.277 110.704C107.632 110.92 107.672 111.413 107.637 111.826C107.601 112.239 107.543 112.701 107.805 113.023C108.005 113.274 108.348 113.371 108.563 113.608C108.692 113.778 108.8 113.962 108.888 114.156C109.209 114.717 109.796 115.059 110.277 115.499C110.758 115.94 111.165 116.585 110.95 117.194C110.792 117.641 110.348 117.917 109.921 118.127C109.141 118.511 108.319 118.802 107.47 118.992C107.379 119.019 107.283 119.024 107.189 119.007C107.095 118.972 107.01 118.915 106.944 118.839C106.448 118.353 105.935 117.844 105.706 117.191C105.665 117.033 105.602 116.881 105.518 116.741C105.255 116.373 104.702 116.386 104.329 116.133C103.891 115.835 103.785 115.246 103.499 114.801C103.214 114.356 102.795 114.09 102.49 113.699C101.976 113.047 101.85 112.177 101.481 111.433C101.325 111.117 101.125 110.821 101 110.492C100.875 110.097 100.797 109.689 100.77 109.276C100.533 107.314 99.929 105.338 100.309 103.397C100.393 102.97 100.523 102.557 100.576 102.117C100.669 101.356 100.523 100.576 100.635 99.8169C100.638 99.7216 100.662 99.6281 100.706 99.5435C100.75 99.4588 100.813 99.3852 100.889 99.3281C100.98 99.2873 101.079 99.2673 101.179 99.2693C102.176 99.2161 103.175 99.2385 104.169 99.3365C104.673 99.3852 105.238 99.4877 105.541 99.8992C105.799 100.252 105.785 100.724 105.868 101.152C105.97 101.68 106.238 101.967 106.518 102.38C106.799 102.794 106.648 103.202 106.441 103.628Z" fill="#3F3D56"/>
<path d="M102.561 117.278C102.826 117.278 103.121 117.261 103.326 117.429C103.582 117.639 103.585 118.024 103.545 118.352C103.427 119.272 103.126 120.157 102.825 121.039L101.93 123.661C101.788 124.036 101.684 124.423 101.617 124.817C101.53 125.489 101.664 126.161 101.681 126.833C101.681 127.169 101.659 127.542 101.449 127.812C101.069 128.301 100.327 128.244 99.7168 128.148L96.7383 127.644C96.487 127.611 96.24 127.551 96.0016 127.464C95.7531 127.35 95.514 127.216 95.2869 127.063C94.6974 126.727 94.0781 126.445 93.4369 126.223C93.1577 126.119 92.8449 125.986 92.7439 125.706C92.6245 125.37 92.8903 125 93.2199 124.866C93.5495 124.731 93.9179 124.765 94.2744 124.775C95.1512 124.803 96.0265 124.685 96.8644 124.426C97.1168 124.364 97.3509 124.243 97.5472 124.073C97.7467 123.849 97.8826 123.576 97.9408 123.282C98.1946 122.406 98.3458 121.504 98.3915 120.594C98.4268 119.922 98.4033 119.25 98.4302 118.578C98.447 118.18 98.4083 116.899 98.7581 116.625C99.0255 116.42 100.125 116.986 100.487 117.068C101.167 117.224 101.863 117.294 102.561 117.278Z" fill="#2F2E41"/>
<path d="M112.373 119.146C112.664 120.109 112.709 121.127 112.898 122.116C113.086 123.106 113.419 124.115 114.154 124.804C114.297 124.917 114.42 125.053 114.519 125.207C114.581 125.351 114.602 125.509 114.58 125.664C114.557 125.819 114.493 125.965 114.393 126.086C114.19 126.324 113.938 126.517 113.654 126.652C111.756 127.686 109.618 128.209 107.464 128.467C107.083 128.539 106.691 128.524 106.317 128.425C105.95 128.301 105.625 127.972 105.632 127.586C105.629 127.48 105.664 127.376 105.733 127.295C105.798 127.235 105.876 127.19 105.96 127.162C106.754 126.836 107.559 126.482 108.173 125.881C108.787 125.279 109.172 124.369 108.935 123.552C108.795 123.17 108.604 122.808 108.368 122.476C108.061 121.948 107.78 121.404 107.527 120.848L106.787 119.297C106.571 118.844 106.352 118.377 106.315 117.876C107.244 117.918 108.173 117.769 109.043 117.44C109.449 117.274 109.827 117.048 110.165 116.768C110.45 116.529 110.711 116.084 111.096 116.395C111.406 116.643 111.601 117.344 111.783 117.698C112.018 118.164 112.216 118.648 112.373 119.146Z" fill="#2F2E41"/>
<path d="M101.528 80.6471C101.602 81.2921 102.228 81.7171 102.825 81.9724L99.0457 83.1768C99.2896 82.7099 99.0928 82.1387 98.8506 81.665C98.6533 81.29 98.4285 80.9301 98.1779 80.5883C98.1409 80.5362 98.0988 80.4707 98.1257 80.4102C98.1497 80.3707 98.1874 80.3414 98.2317 80.3279C99.0087 79.9819 99.8092 79.6241 100.659 79.4981C100.904 79.4628 101.368 79.3654 101.552 79.614C101.735 79.8626 101.493 80.3497 101.528 80.6471Z" fill="#FBBEBE"/>
<path opacity="0.1" d="M101.528 80.6471C101.602 81.2921 102.228 81.7171 102.825 81.9724L99.0457 83.1768C99.2896 82.7099 99.0928 82.1387 98.8506 81.665C98.6533 81.29 98.4285 80.9301 98.1779 80.5883C98.1409 80.5362 98.0988 80.4707 98.1257 80.4102C98.1497 80.3707 98.1874 80.3414 98.2317 80.3279C99.0087 79.9819 99.8092 79.6241 100.659 79.4981C100.904 79.4628 101.368 79.3654 101.552 79.614C101.735 79.8626 101.493 80.3497 101.528 80.6471Z" fill="black"/>
<path d="M99.332 81.1694C100.969 81.1694 102.295 79.8442 102.295 78.2096C102.295 76.5749 100.969 75.2498 99.332 75.2498C97.6954 75.2498 96.3687 76.5749 96.3687 78.2096C96.3687 79.8442 97.6954 81.1694 99.332 81.1694Z" fill="#FBBEBE"/>
<path d="M96.7638 102.567C97.0514 102.911 97.5577 102.978 98 102.903C99.0343 102.735 99.8803 101.974 100.893 101.7C102.134 101.364 103.447 101.796 104.62 102.325C105.792 102.854 106.957 103.501 108.239 103.591C107.08 101.011 107.743 97.9068 106.634 95.3048C106.364 94.6682 105.985 94.055 105.925 93.3663C105.849 92.5113 106.276 91.6865 106.342 90.8365C106.402 90.0789 106.174 89.3247 105.955 88.6024C105.685 87.7155 105.415 86.8285 105.144 85.9416C104.842 84.9489 104.531 83.9393 103.944 83.086C103.727 82.7718 103.661 82.1352 103.331 81.9454C102.612 81.5305 101.52 82.0529 100.74 82.0814C99.9593 82.11 99.2479 82.6643 98.7921 83.2909C98.3094 83.9527 98.0353 84.7406 97.783 85.52C97.3813 86.6805 97.0814 87.8738 96.8866 89.0862C96.8614 89.2676 96.8395 89.449 96.8227 89.6321C96.6545 91.3573 96.9001 93.0925 96.9135 94.826V94.8378C96.9303 97.0367 96.5772 99.2221 96.5116 101.419C96.5048 101.821 96.5149 102.259 96.7638 102.567Z" fill="#2F2E41"/>
<path opacity="0.1" d="M96.9183 94.8279C97.4985 94.6818 98.0233 94.3072 98.474 93.8973C98.8644 93.5483 99.2111 93.1535 99.5066 92.7214C99.8787 92.1405 100.178 91.516 100.396 90.8619C101.019 89.1127 101.415 87.2909 101.574 85.4412C101.617 84.9373 101.631 84.3964 101.33 83.9966C101.161 83.78 100.923 83.6269 100.656 83.5623C100.389 83.4976 100.108 83.5252 99.8581 83.6405C99.4612 83.8336 99.2039 84.225 98.9651 84.5996C98.4925 85.3421 98.0165 86.0946 97.7121 86.9211C97.5776 87.2873 97.4784 87.6636 97.3472 88.0314C97.2138 88.3943 97.0599 88.7493 96.8864 89.0948C96.8611 89.2762 96.8393 89.4576 96.8224 89.6407C96.666 91.3658 96.9049 93.0943 96.9183 94.8279Z" fill="black"/>
<path d="M101.321 83.6723C101.623 84.0721 101.609 84.618 101.567 85.1152C101.408 86.965 101.013 88.7868 100.39 90.536C100.173 91.1955 99.8739 91.8253 99.5001 92.4106C99.204 92.8423 98.8573 93.237 98.4674 93.5865C97.8956 94.1072 97.1993 94.5725 96.424 94.5792C95.9876 94.5587 95.5578 94.465 95.1525 94.302L88.8373 92.1553C88.7734 91.7958 89.0274 91.3758 89.1468 91.0298L89.4831 90.0337C89.579 89.7582 89.69 89.4609 89.9406 89.3114C90.1912 89.1619 90.5881 89.3668 90.7966 89.5331C91.0052 89.6994 91.1633 89.9178 91.3684 90.0874C91.7569 90.41 92.2699 90.5309 92.7644 90.6418L94.1821 90.9593C94.6961 91.0999 95.2268 91.1705 95.7597 91.1692C96.1549 89.9631 96.9067 88.9015 97.3322 87.7055C97.4634 87.3393 97.5626 86.9613 97.6988 86.5951C98.0016 85.7687 98.4792 85.0178 98.9518 84.2737C99.1889 83.9008 99.4462 83.5094 99.8448 83.3145C100.095 83.1978 100.378 83.1696 100.646 83.2347C100.914 83.2997 101.153 83.4541 101.321 83.6723Z" fill="#2F2E41"/>
<path d="M100.277 78.8781C100.254 78.6834 100.194 78.4951 100.098 78.3238C100.049 78.238 99.9733 78.1703 99.8826 78.1304C99.7918 78.0905 99.6907 78.0806 99.5939 78.102C99.2979 78.1944 99.1987 78.6513 98.8892 78.6665C98.6807 78.6765 98.531 78.4649 98.4654 78.2667C98.3998 78.0684 98.3645 77.8417 98.2081 77.7022C98.0992 77.6209 97.9742 77.5637 97.8415 77.5343C97.1233 77.3075 96.3816 76.8892 96.1428 76.1753C96.0866 76.0304 96.0732 75.8724 96.1041 75.7201C96.2135 75.2682 96.7769 75.1322 97.2057 74.9692C97.6346 74.8063 98.0466 74.5274 98.4671 74.3158C98.8876 74.1041 99.3753 73.9546 99.8378 74.0621C100.072 74.1359 100.303 74.2216 100.529 74.3191C101.225 74.561 102.078 74.4485 102.618 74.9507C102.854 75.1999 103.027 75.5016 103.122 75.831C103.499 76.8758 103.738 78.1155 103.114 79.0327C102.729 79.5987 102.355 80.2455 101.615 80.3143C100.754 80.3866 100.413 79.6071 100.277 78.8781Z" fill="#2F2E41"/>
<g opacity="0.1">
<path opacity="0.1" d="M98.9617 77.9105C98.8961 77.7123 98.8608 77.4855 98.706 77.3461C98.5971 77.2648 98.4721 77.2075 98.3394 77.1781C97.6196 76.9514 96.8796 76.5331 96.6391 75.8192C96.5843 75.6739 96.5714 75.5162 96.6021 75.364C96.6186 75.2922 96.6488 75.2243 96.6912 75.1641C96.4171 75.2833 96.1782 75.4412 96.111 75.7201C96.08 75.8724 96.0935 76.0304 96.1497 76.1753C96.3885 76.8892 97.1302 77.3075 97.8483 77.5343C97.9811 77.5636 98.106 77.6209 98.2149 77.7022C98.3713 77.8417 98.405 78.0668 98.4722 78.2666C98.5395 78.4665 98.6875 78.6765 98.8961 78.6664C99.1046 78.6564 99.2055 78.4665 99.3384 78.307C99.1551 78.2834 99.0222 78.0953 98.9617 77.9105Z" fill="black"/>
<path opacity="0.1" d="M102.11 79.9532C101.246 80.0322 100.904 79.246 100.765 78.522C100.746 78.3279 100.689 78.1394 100.596 77.9677C100.547 77.8821 100.471 77.8145 100.38 77.7747C100.29 77.7348 100.189 77.7247 100.092 77.7459C99.9385 77.8203 99.8095 77.9368 99.7202 78.0819C99.7974 78.0893 99.8718 78.1144 99.9378 78.1552C100.004 78.1959 100.059 78.2513 100.1 78.3171C100.196 78.4884 100.256 78.6767 100.279 78.8714C100.415 79.5954 100.756 80.3832 101.624 80.3026C101.967 80.2648 102.284 80.1007 102.512 79.8423C102.385 79.9014 102.249 79.9389 102.11 79.9532Z" fill="black"/>
</g>
<path d="M136.751 111.201C139.75 111.201 142.182 110.734 142.182 110.158C142.182 109.582 139.75 109.115 136.751 109.115C133.752 109.115 131.32 109.582 131.32 110.158C131.32 110.734 133.752 111.201 136.751 111.201Z" fill="#7052CC"/>
<path d="M136.66 110.541C137.009 110.541 137.292 110.171 137.292 109.714C137.292 109.258 137.009 108.888 136.66 108.888C136.31 108.888 136.027 109.258 136.027 109.714C136.027 110.171 136.31 110.541 136.66 110.541Z" fill="#3F3D56"/>
<path d="M136.66 109.529C137.009 109.529 137.292 109.159 137.292 108.703C137.292 108.246 137.009 107.876 136.66 107.876C136.31 107.876 136.027 108.246 136.027 108.703C136.027 109.159 136.31 109.529 136.66 109.529Z" fill="#3F3D56"/>
<path d="M136.66 108.52C137.009 108.52 137.292 108.15 137.292 107.693C137.292 107.237 137.009 106.867 136.66 106.867C136.31 106.867 136.027 107.237 136.027 107.693C136.027 108.15 136.31 108.52 136.66 108.52Z" fill="#3F3D56"/>
<path d="M136.66 107.509C137.009 107.509 137.292 107.139 137.292 106.682C137.292 106.226 137.009 105.856 136.66 105.856C136.31 105.856 136.027 106.226 136.027 106.682C136.027 107.139 136.31 107.509 136.66 107.509Z" fill="#3F3D56"/>
<path d="M136.66 106.497C137.009 106.497 137.292 106.127 137.292 105.671C137.292 105.214 137.009 104.844 136.66 104.844C136.31 104.844 136.027 105.214 136.027 105.671C136.027 106.127 136.31 106.497 136.66 106.497Z" fill="#3F3D56"/>
<path d="M136.66 105.488C137.009 105.488 137.292 105.118 137.292 104.661C137.292 104.205 137.009 103.835 136.66 103.835C136.31 103.835 136.027 104.205 136.027 104.661C136.027 105.118 136.31 105.488 136.66 105.488Z" fill="#3F3D56"/>
<path d="M136.66 104.477C137.009 104.477 137.292 104.107 137.292 103.65C137.292 103.194 137.009 102.824 136.66 102.824C136.31 102.824 136.027 103.194 136.027 103.65C136.027 104.107 136.31 104.477 136.66 104.477Z" fill="#3F3D56"/>
<path d="M139.026 96.7411C139.112 96.6313 139.191 96.5157 139.261 96.3951L137.6 96.123L139.398 96.1347C139.569 95.7599 139.663 95.3541 139.673 94.9421C139.683 94.53 139.608 94.1202 139.455 93.7377L137.043 94.9874L139.267 93.3547C139.058 92.996 138.778 92.684 138.443 92.4381C138.109 92.1923 137.727 92.0178 137.322 91.9256C136.917 91.8333 136.498 91.8253 136.089 91.9019C135.681 91.9786 135.293 92.1384 134.949 92.3712C134.606 92.6041 134.314 92.9051 134.091 93.2556C133.869 93.606 133.722 93.9984 133.658 94.4082C133.594 94.8181 133.615 95.2368 133.72 95.6381C133.825 96.0394 134.012 96.4149 134.268 96.7411C134.133 96.9117 134.017 97.0965 133.922 97.2921L136.079 98.4125L133.779 97.6415C133.618 98.1175 133.579 98.6261 133.664 99.1211C133.75 99.6162 133.957 100.082 134.268 100.477C133.917 100.923 133.699 101.459 133.639 102.023C133.578 102.587 133.678 103.157 133.926 103.667C134.174 104.177 134.561 104.607 135.043 104.908C135.524 105.209 136.081 105.368 136.649 105.368C137.217 105.368 137.773 105.209 138.255 104.908C138.736 104.607 139.123 104.177 139.371 103.667C139.62 103.157 139.719 102.587 139.659 102.023C139.598 101.459 139.38 100.923 139.029 100.477C139.45 99.9439 139.678 99.2851 139.678 98.6065C139.678 97.928 139.45 97.2692 139.029 96.7361L139.026 96.7411Z" fill="#7052CC"/>
<path opacity="0.1" d="M133.616 98.6056C133.615 99.285 133.845 99.9446 134.268 100.477C133.917 100.923 133.699 101.459 133.639 102.023C133.578 102.587 133.678 103.156 133.926 103.667C134.175 104.177 134.562 104.607 135.043 104.908C135.524 105.209 136.081 105.368 136.649 105.368C137.217 105.368 137.773 105.209 138.255 104.908C138.736 104.607 139.123 104.177 139.372 103.667C139.62 103.156 139.719 102.587 139.659 102.023C139.598 101.459 139.38 100.923 139.03 100.477C139.431 99.9612 133.616 98.2662 133.616 98.6056Z" fill="black"/>
<path d="M24.9614 132C29.2796 132 32.7802 131.328 32.7802 130.498C32.7802 129.669 29.2796 128.997 24.9614 128.997C20.6432 128.997 17.1426 129.669 17.1426 130.498C17.1426 131.328 20.6432 132 24.9614 132Z" fill="#7052CC"/>
<path d="M24.8303 131.051C25.3328 131.051 25.7401 130.518 25.7401 129.86C25.7401 129.202 25.3328 128.669 24.8303 128.669C24.3278 128.669 23.9204 129.202 23.9204 129.86C23.9204 130.518 24.3278 131.051 24.8303 131.051Z" fill="#3F3D56"/>
<path d="M24.8303 129.596C25.3328 129.596 25.7401 129.063 25.7401 128.405C25.7401 127.748 25.3328 127.214 24.8303 127.214C24.3278 127.214 23.9204 127.748 23.9204 128.405C23.9204 129.063 24.3278 129.596 24.8303 129.596Z" fill="#3F3D56"/>
<path d="M24.8303 128.141C25.3328 128.141 25.7401 127.608 25.7401 126.951C25.7401 126.293 25.3328 125.76 24.8303 125.76C24.3278 125.76 23.9204 126.293 23.9204 126.951C23.9204 127.608 24.3278 128.141 24.8303 128.141Z" fill="#3F3D56"/>
<path d="M24.8303 126.687C25.3328 126.687 25.7401 126.154 25.7401 125.496C25.7401 124.838 25.3328 124.305 24.8303 124.305C24.3278 124.305 23.9204 124.838 23.9204 125.496C23.9204 126.154 24.3278 126.687 24.8303 126.687Z" fill="#3F3D56"/>
<path d="M24.8303 125.232C25.3328 125.232 25.7401 124.699 25.7401 124.041C25.7401 123.383 25.3328 122.85 24.8303 122.85C24.3278 122.85 23.9204 123.383 23.9204 124.041C23.9204 124.699 24.3278 125.232 24.8303 125.232Z" fill="#3F3D56"/>
<path d="M24.8303 123.776C25.3328 123.776 25.7401 123.243 25.7401 122.585C25.7401 121.927 25.3328 121.394 24.8303 121.394C24.3278 121.394 23.9204 121.927 23.9204 122.585C23.9204 123.243 24.3278 123.776 24.8303 123.776Z" fill="#3F3D56"/>
<path d="M24.8303 122.321C25.3328 122.321 25.7401 121.788 25.7401 121.13C25.7401 120.472 25.3328 119.939 24.8303 119.939C24.3278 119.939 23.9204 120.472 23.9204 121.13C23.9204 121.788 24.3278 122.321 24.8303 122.321Z" fill="#3F3D56"/>
<path d="M28.2376 111.176C28.3607 111.015 28.4731 110.847 28.5739 110.672L26.1824 110.279L28.769 110.299C29.0169 109.759 29.1521 109.175 29.1663 108.581C29.1805 107.988 29.0733 107.397 28.8514 106.847L25.3835 108.651L28.579 106.299C28.2798 105.781 27.8767 105.329 27.3951 104.973C26.9134 104.617 26.3634 104.364 25.7795 104.23C25.1955 104.095 24.5901 104.083 24.001 104.192C23.4119 104.302 22.8518 104.532 22.3556 104.867C21.8594 105.203 21.4378 105.637 21.117 106.143C20.7962 106.648 20.5832 107.214 20.4913 107.806C20.3994 108.397 20.4304 109.001 20.5826 109.58C20.7348 110.159 21.0048 110.7 21.3757 111.171C21.1793 111.416 21.0101 111.682 20.8712 111.963L23.9775 113.576L20.666 112.466C20.4339 113.154 20.3779 113.89 20.503 114.605C20.6282 115.321 20.9305 115.994 21.3825 116.563C20.8765 117.205 20.5617 117.977 20.4741 118.79C20.3865 119.602 20.5297 120.423 20.8872 121.159C21.2448 121.894 21.8023 122.514 22.496 122.948C23.1897 123.381 23.9916 123.611 24.81 123.611C25.6284 123.611 26.4303 123.381 27.1241 122.948C27.8178 122.514 28.3752 121.894 28.7328 121.159C29.0904 120.423 29.2335 119.602 29.1459 118.79C29.0584 117.977 28.7436 117.205 28.2376 116.563C28.8424 115.795 29.1712 114.847 29.1712 113.87C29.1712 112.893 28.8424 111.945 28.2376 111.177V111.176Z" fill="#7052CC"/>
<path opacity="0.1" d="M20.4492 113.875C20.4494 114.85 20.7782 115.797 21.3826 116.563C20.8766 117.205 20.5618 117.977 20.4743 118.79C20.3867 119.602 20.5299 120.423 20.8874 121.159C21.245 121.894 21.8025 122.514 22.4962 122.948C23.1899 123.381 23.9918 123.611 24.8102 123.611C25.6286 123.611 26.4305 123.381 27.1242 122.948C27.8179 122.514 28.3754 121.894 28.733 121.159C29.0905 120.423 29.2337 119.602 29.1461 118.79C29.0585 117.977 28.7438 117.205 28.2377 116.563C28.818 115.82 20.4492 113.379 20.4492 113.875Z" fill="black"/>
</g>
<defs>
<linearGradient id="paint0_linear_46_1677" x1="101.226" y1="128.73" x2="99.005" y2="73.6122" gradientUnits="userSpaceOnUse">
<stop stop-color="#808080" stop-opacity="0.25"/>
<stop offset="0.54" stop-color="#808080" stop-opacity="0.12"/>
<stop offset="1" stop-color="#808080" stop-opacity="0.1"/>
</linearGradient>
<clipPath id="clip0_46_1677">
<rect width="172" height="132" fill="white"/>
</clipPath>
</defs>
</svg>
