<svg width="80" height="80" viewBox="0 0 80 80" fill="none" xmlns="http://www.w3.org/2000/svg">
<path d="M39.4845 41.3059C40.8143 41.3059 41.8923 40.2278 41.8923 38.898C41.8923 37.5682 40.8143 36.4902 39.4845 36.4902C38.1547 36.4902 37.0767 37.5682 37.0767 38.898C37.0767 40.2278 38.1547 41.3059 39.4845 41.3059Z" fill="#7052CC"/>
<path d="M31.0821 44.3605C32.4119 44.3605 33.4899 43.2825 33.4899 41.9527C33.4899 40.6229 32.4119 39.5449 31.0821 39.5449C29.7523 39.5449 28.6743 40.6229 28.6743 41.9527C28.6743 43.2825 29.7523 44.3605 31.0821 44.3605Z" fill="#7052CC"/>
<path d="M47.8868 38.2513C49.2166 38.2513 50.2946 37.1733 50.2946 35.8435C50.2946 34.5137 49.2166 33.4357 47.8868 33.4357C46.557 33.4357 45.479 34.5137 45.479 35.8435C45.479 37.1733 46.557 38.2513 47.8868 38.2513Z" fill="#7052CC"/>
<path d="M42.3111 49.0606C43.6409 49.0606 44.7189 47.9826 44.7189 46.6528C44.7189 45.323 43.6409 44.245 42.3111 44.245C40.9813 44.245 39.9033 45.323 39.9033 46.6528C39.9033 47.9826 40.9813 49.0606 42.3111 49.0606Z" fill="#7052CC"/>
<path d="M33.9088 52.124C35.2386 52.124 36.3166 51.046 36.3166 49.7162C36.3166 48.3864 35.2386 47.3083 33.9088 47.3083C32.579 47.3083 31.501 48.3864 31.501 49.7162C31.501 51.046 32.579 52.124 33.9088 52.124Z" fill="#7052CC"/>
<path d="M50.714 46.006C52.0438 46.006 53.1218 44.928 53.1218 43.5982C53.1218 42.2684 52.0438 41.1904 50.714 41.1904C49.3842 41.1904 48.3062 42.2684 48.3062 43.5982C48.3062 44.928 49.3842 46.006 50.714 46.006Z" fill="#7052CC"/>
<path d="M64.3302 46.1285L56.2647 23.9716C56.2647 23.9707 56.2647 23.9698 56.2647 23.969C56.2647 23.9681 56.2639 23.9672 56.263 23.9663L54.8967 20.2124C54.6271 19.4719 54.0836 18.8794 53.3659 18.545C52.6482 18.2089 51.8438 18.1739 51.1043 18.4435L44.7893 20.7419L43.8712 18.2203C43.7066 17.7661 43.2016 17.5298 42.75 17.6978C42.2949 17.8623 42.0612 18.3656 42.2266 18.8199L43.1439 21.3406L25.3973 27.7999L24.48 25.2792C24.3146 24.825 23.8113 24.5913 23.358 24.7558C22.9037 24.9212 22.6691 25.4236 22.8346 25.8779L23.7518 28.3995L17.4369 30.6979C15.9035 31.2563 15.1096 32.9578 15.668 34.4904L25.1006 60.4065C25.5373 61.6065 26.6752 62.3539 27.8848 62.3539C28.22 62.3539 28.5604 62.297 28.893 62.1754L62.5604 49.9219C64.0947 49.3635 64.8877 47.662 64.3302 46.1285ZM17.3572 32.9692C17.4947 32.6751 17.7354 32.4528 18.0364 32.3434L25.1724 29.7456C25.1732 29.7456 25.1732 29.7456 25.1741 29.7456C25.175 29.7456 25.175 29.7447 25.175 29.7447L51.7029 20.089C51.836 20.04 51.9743 20.0163 52.1125 20.0163C52.2876 20.0163 52.4626 20.0548 52.6272 20.1319C52.9213 20.2684 53.1436 20.51 53.253 20.8111L54.3208 23.7449L18.3822 36.8255L17.3144 33.8917C17.205 33.5906 17.2198 33.2632 17.3572 32.9692ZM61.9626 48.2764L28.2961 60.5299C27.6694 60.754 26.9745 60.4336 26.7461 59.8078L18.98 38.4701L54.9186 25.3895L62.6856 46.7272C62.9131 47.3539 62.5893 48.0488 61.9626 48.2764Z" fill="#7052CC"/>
<path d="M74.2298 19.5358C73.9243 19.5358 73.6276 19.3756 73.4674 19.0912C68.3113 9.97019 58.6074 4.3047 48.1412 4.3047C39.2066 4.3047 30.8961 8.32647 25.3409 15.339C25.0407 15.718 24.4911 15.7801 24.1112 15.4816C23.7322 15.1814 23.6683 14.6309 23.9685 14.2519C29.8581 6.81754 38.6684 2.5542 48.1412 2.5542C59.2376 2.5542 69.5253 8.56104 74.9904 18.2299C75.2284 18.6509 75.0805 19.1848 74.6595 19.4229C74.5238 19.4999 74.3759 19.5358 74.2298 19.5358Z" fill="#7052CC"/>
<path d="M30.1734 77.9325C20.7006 77.9325 11.8903 73.6691 6.00076 66.2356C5.70055 65.8566 5.76444 65.3061 6.14342 65.0059C6.52153 64.7057 7.07206 64.7687 7.37315 65.1486C12.9284 72.1611 21.2389 76.1828 30.1734 76.1828C40.6388 76.1828 50.3427 70.5165 55.4996 61.3955C55.7377 60.9745 56.2725 60.8275 56.6917 61.0647C57.1118 61.3018 57.2606 61.8366 57.0226 62.2567C51.5566 71.9256 41.269 77.9325 30.1734 77.9325Z" fill="#7052CC"/>
<path d="M78.2808 23.4744H77.4449V22.6377C77.4449 22.1546 77.0537 21.7625 76.5697 21.7625C76.0856 21.7625 75.6944 22.1546 75.6944 22.6377V23.4744H74.8577C74.3737 23.4744 73.9824 23.8666 73.9824 24.3497C73.9824 24.8328 74.3737 25.2249 74.8577 25.2249H75.6944V26.0617C75.6944 26.5448 76.0856 26.9369 76.5697 26.9369C77.0537 26.9369 77.4449 26.5448 77.4449 26.0617V25.2249H78.2808C78.7648 25.2249 79.156 24.8328 79.156 24.3497C79.156 23.8666 78.7648 23.4744 78.2808 23.4744Z" fill="#7052CC"/>
<path d="M24.1987 5.8924C23.4933 5.8924 22.8307 5.61757 22.3318 5.11868C21.8329 4.62066 21.5581 3.95722 21.5581 3.25177C21.5581 2.54632 21.8329 1.88375 22.3318 1.38486C23.3611 0.355569 25.0363 0.356444 26.0656 1.38486C27.0949 2.41503 27.0949 4.08938 26.0656 5.11868C25.5668 5.61757 24.9042 5.8924 24.1987 5.8924ZM24.1987 2.36339C23.9712 2.36339 23.7427 2.45004 23.5694 2.62334C23.4014 2.79051 23.3086 3.01458 23.3086 3.25177C23.3086 3.48896 23.4014 3.71303 23.5694 3.8802C23.916 4.2268 24.4806 4.22767 24.828 3.8802C25.1746 3.5336 25.1746 2.96906 24.828 2.62159C24.6539 2.45004 24.4263 2.36339 24.1987 2.36339Z" fill="#7052CC"/>
<path d="M14.5641 56.4766C14.3733 56.4766 14.1816 56.4153 14.0206 56.2875C6.58707 50.398 2.32373 41.5877 2.32373 32.114C2.32373 21.0185 8.33057 10.7299 17.9995 5.26395C18.4213 5.02588 18.9544 5.17467 19.1924 5.59479C19.4296 6.01579 19.2817 6.54969 18.8616 6.78776C9.7406 11.9439 4.07423 21.6486 4.07423 32.114C4.07423 41.0494 8.096 49.3599 15.1076 54.9143C15.4866 55.2153 15.5505 55.7659 15.2503 56.144C15.0779 56.3628 14.8223 56.4766 14.5641 56.4766Z" fill="#7052CC"/>
<path d="M65.4616 74.4437C65.2034 74.4437 64.9469 74.3299 64.7745 74.112C64.4743 73.733 64.5382 73.1825 64.9171 72.8823C71.9296 67.327 75.9514 59.0174 75.9514 50.0829C75.9514 39.6166 70.285 29.9119 61.1641 24.7566C60.7439 24.5186 60.5952 23.9847 60.8332 23.5637C61.0704 23.1427 61.6061 22.9948 62.0253 23.2328C71.6942 28.6988 77.701 38.9865 77.701 50.0829C77.701 59.5548 73.4377 68.366 66.0042 74.2555C65.844 74.3824 65.6515 74.4437 65.4616 74.4437Z" fill="#7052CC"/>
<path d="M59.9169 79.3863C59.2106 79.3863 58.548 79.1123 58.0491 78.6126C57.0207 77.5841 57.0207 75.9089 58.0491 74.8787C59.0802 73.8495 60.7528 73.8503 61.7838 74.8779L61.7847 74.8787C62.8131 75.9089 62.8131 77.5841 61.7838 78.6126C61.2849 79.1123 60.6224 79.3863 59.9169 79.3863ZM59.9169 75.8573C59.6885 75.8573 59.4609 75.9439 59.2876 76.1172C58.941 76.4638 58.941 77.0284 59.2876 77.3758C59.6246 77.7128 60.2093 77.7128 60.5462 77.3758C60.8928 77.0292 60.8928 76.4656 60.5462 76.1181C60.3729 75.9439 60.1445 75.8573 59.9169 75.8573Z" fill="#7052CC"/>
<path d="M5.1421 59.7063H4.30624V58.8695C4.30624 58.3855 3.91413 57.9943 3.43099 57.9943C2.94785 57.9943 2.55574 58.3855 2.55574 58.8695V59.7063H1.719C1.23586 59.7063 0.84375 60.0975 0.84375 60.5815C0.84375 61.0655 1.23586 61.4568 1.719 61.4568H2.55574V62.2926C2.55574 62.7766 2.94785 63.1679 3.43099 63.1679C3.91413 63.1679 4.30624 62.7766 4.30624 62.2926V61.4568H5.1421C5.62524 61.4568 6.01735 61.0655 6.01735 60.5815C6.01735 60.0984 5.62524 59.7063 5.1421 59.7063Z" fill="#7052CC"/>
</svg>
