<svg width="21" height="20" viewBox="0 0 21 20" fill="none" xmlns="http://www.w3.org/2000/svg">
<path d="M6.073 10.194L2.212 6.33303C0.692 7.99003 0.116 9.65003 0.106 9.68403L0 10L0.105 10.316C0.127 10.383 2.421 17 10.054 17C10.983 17 11.829 16.898 12.606 16.727L9.86 13.981C8.87128 13.9326 7.93595 13.518 7.23598 12.818C6.53601 12.1181 6.12147 11.1827 6.073 10.194ZM10.054 3.00003C8.199 3.00003 6.679 3.40403 5.412 3.99803L1.707 0.29303L0.293 1.70703L18.293 19.707L19.707 18.293L16.409 14.995C19.047 13.042 19.988 10.358 20.002 10.316L20.107 10L20.002 9.68403C19.98 9.61703 17.687 3.00003 10.054 3.00003ZM11.96 10.546C12.147 9.86903 11.988 9.10703 11.468 8.58603C10.948 8.06503 10.185 7.90703 9.508 8.09403L8 6.58603C8.61796 6.20601 9.32855 6.00328 10.054 6.00003C12.26 6.00003 14.054 7.79403 14.054 10C14.051 10.7253 13.8479 11.4358 13.467 12.053L11.96 10.546Z" fill="#2E3033"/>
</svg>
